<svg xmlns="http://www.w3.org/2000/svg" xmlns:xlink="http://www.w3.org/1999/xlink" width="384" zoomAndPan="magnify" viewBox="0 0 288 287.999989" height="384" preserveAspectRatio="xMidYMid meet" version="1.0"><defs><clipPath id="7bac809904"><path d="M 191 84 L 275.648438 84 L 275.648438 92 L 191 92 Z M 191 84 " clip-rule="nonzero"/></clipPath><clipPath id="fa37c0608f"><path d="M 191 91 L 275.648438 91 L 275.648438 156 L 191 156 Z M 191 91 " clip-rule="nonzero"/></clipPath></defs><rect x="-28.8" width="345.6" fill="#ffffff" y="-28.799999" height="345.599986" fill-opacity="1"/><rect x="-28.8" width="345.6" fill="#ffffff" y="-28.799999" height="345.599986" fill-opacity="1"/><rect x="-28.8" width="345.6" fill="#ffffff" y="-28.799999" height="345.599986" fill-opacity="1"/><path fill="#3d3d54" d="M 149.085938 33.171875 C 149.085938 33.171875 142.328125 17.414062 121.28125 15.960938 C 101.941406 14.605469 87.605469 27.0625 79.949219 42.425781 C 72.296875 57.789062 67.578125 80.734375 66.046875 86.613281 C 64.515625 92.492188 72.683594 101.5 72.164062 104.210938 C 71.648438 106.921875 59.039062 120.464844 76.769531 140.746094 C 94.5 161.027344 129.699219 161.175781 147.0625 154.886719 C 164.425781 148.597656 170.277344 131.132812 169.257812 119.6875 C 168.242188 108.246094 163.140625 104.550781 163.140625 104.550781 C 163.140625 104.550781 172.984375 90.460938 164.671875 67.351562 C 155.210938 41.171875 149.085938 33.171875 149.085938 33.171875 Z M 149.085938 33.171875 " fill-opacity="1" fill-rule="nonzero"/><path fill="#ef78cd" d="M 120.484375 119.683594 C 95.734375 119.683594 82.808594 134.328125 79.328125 139.359375 C 73.917969 147.132812 79.328125 223.535156 79.328125 223.535156 C 79.328125 223.535156 72.761719 249.550781 78.453125 259.621094 C 84.148438 269.691406 121.835938 273.175781 145.472656 269.894531 C 169.109375 266.617188 174.394531 255.90625 175.261719 252.410156 C 176.128906 248.910156 168.253906 218.960938 168.253906 218.960938 C 168.253906 218.960938 172.636719 145.933594 164.09375 134.785156 C 156.945312 125.464844 139.320312 119.683594 120.484375 119.683594 Z M 120.484375 119.683594 " fill-opacity="1" fill-rule="nonzero"/><path fill="#ef78cd" d="M 79.304688 139.34375 C 79.304688 139.34375 51.273438 194.4375 52.804688 199.246094 C 54.335938 204.054688 68.578125 222.421875 71.859375 222.007812 C 75.140625 221.589844 87.429688 192.054688 88.070312 188.992188 C 88.710938 185.925781 89.382812 141.5625 79.304688 139.34375 Z M 79.304688 139.34375 " fill-opacity="1" fill-rule="nonzero"/><path fill="#ef78cd" d="M 163.191406 133.675781 C 163.191406 133.675781 196.921875 194.894531 196.042969 198.628906 C 195.164062 202.367188 187.941406 227.054688 180.472656 225.523438 C 173.003906 223.988281 159.449219 191.65625 157.914062 181.140625 C 156.378906 170.625 163.191406 133.675781 163.191406 133.675781 Z M 163.191406 133.675781 " fill-opacity="1" fill-rule="nonzero"/><path fill="#ef78cd" d="M 180.492188 226.59375 C 187.757812 232.300781 201.738281 230.089844 205.027344 223.09375 C 208.3125 216.101562 221.234375 173.683594 219.042969 171.058594 C 216.851562 168.433594 199.988281 166.691406 197.796875 168.214844 C 195.605469 169.742188 183.125 196.640625 180.277344 203.636719 C 177.429688 210.632812 173.269531 220.90625 180.492188 226.59375 Z M 180.492188 226.59375 " fill-opacity="1" fill-rule="nonzero"/><path fill="#ef78cd" d="M 35.941406 170.433594 C 33.023438 175.617188 41.269531 210.765625 47.332031 219.1875 C 52.335938 226.183594 60.472656 229.242188 68.355469 225.292969 C 76.234375 221.347656 77.113281 208.457031 74.050781 200.148438 C 70.984375 191.84375 60.035156 163.214844 55.851562 162.53125 C 51.671875 161.847656 37.910156 166.90625 35.941406 170.433594 Z M 35.941406 170.433594 " fill-opacity="1" fill-rule="nonzero"/><path fill="#f9dfbb" d="M 47.886719 172.824219 C 38.902344 173.902344 35.050781 172.9375 31.203125 164.542969 C 27.355469 156.148438 27 150.289062 27 147.53125 C 27 144.773438 37.5 137.675781 37.5 137.675781 C 37.5 137.675781 29.640625 113.925781 34.066406 112.820312 C 38.496094 111.71875 45.023438 134.695312 45.023438 134.695312 C 45.023438 134.695312 54.429688 133.703125 56.417969 139.136719 C 58.410156 144.570312 57.414062 159.789062 57.414062 159.789062 C 57.414062 159.789062 59.746094 165.863281 56.632812 168.292969 C 53.515625 170.726562 50.65625 172.492188 47.886719 172.824219 Z M 47.886719 172.824219 " fill-opacity="1" fill-rule="nonzero"/><path fill="#f9dfbb" d="M 29.5625 131.570312 C 26.382812 132.597656 28.355469 137.421875 30.648438 140.453125 C 32.9375 143.484375 38.613281 151.9375 41.847656 149.828125 C 45.085938 147.71875 40.039062 139.765625 37.632812 136.371094 C 35.222656 132.980469 32.09375 130.753906 29.5625 131.570312 Z M 29.5625 131.570312 " fill-opacity="1" fill-rule="nonzero"/><path fill="#f9dfbb" d="M 25.453125 137.214844 C 22.699219 138.078125 24.414062 142.117188 26.375 144.648438 C 28.339844 147.179688 33.273438 154.238281 36.097656 152.476562 C 38.921875 150.71875 34.527344 144.066406 32.4375 141.230469 C 30.347656 138.394531 27.648438 136.53125 25.453125 137.214844 Z M 25.453125 137.214844 " fill-opacity="1" fill-rule="nonzero"/><path fill="#f9dfbb" d="M 24.152344 146.558594 C 20.640625 149.722656 31.257812 158.96875 33.304688 156.980469 C 35.351562 154.992188 33.550781 151.945312 30.773438 148.429688 C 28 144.917969 25.820312 145.03125 24.152344 146.558594 Z M 24.152344 146.558594 " fill-opacity="1" fill-rule="nonzero"/><path fill="#f9dfbb" d="M 49.992188 137.589844 C 49.992188 137.589844 43.132812 137.476562 40.585938 139.6875 C 38.039062 141.894531 35.164062 147.113281 36.941406 148.636719 C 38.722656 150.15625 42.910156 147.113281 42.910156 147.113281 C 42.910156 147.113281 50.761719 154.292969 53.421875 151.757812 C 56.082031 149.21875 57.074219 139.796875 49.992188 137.589844 Z M 49.992188 137.589844 " fill-opacity="1" fill-rule="nonzero"/><path fill="#f9dfbb" d="M 196.960938 170.261719 C 195.738281 164.375 197.941406 158.507812 205.789062 158.601562 C 213.636719 158.695312 241.253906 160.34375 241.253906 160.34375 C 241.253906 160.34375 251.738281 155.136719 253.601562 158.167969 C 255.464844 161.199219 242.390625 166.105469 242.390625 166.105469 C 242.390625 166.105469 224.035156 175.019531 217.527344 175.265625 C 211.023438 175.515625 197.605469 173.351562 196.960938 170.261719 Z M 196.960938 170.261719 " fill-opacity="1" fill-rule="nonzero"/><path fill="#f9dfbb" d="M 130.691406 107.066406 L 130.691406 121.820312 C 130.671875 122.527344 130.589844 123.222656 130.4375 123.914062 C 130.285156 124.605469 130.070312 125.273438 129.789062 125.917969 C 129.507812 126.566406 129.164062 127.183594 128.765625 127.761719 C 128.363281 128.34375 127.910156 128.882812 127.402344 129.375 C 126.898438 129.867188 126.351562 130.308594 125.757812 130.695312 C 125.167969 131.082031 124.542969 131.410156 123.890625 131.675781 C 123.234375 131.945312 122.558594 132.144531 121.867188 132.28125 C 121.171875 132.417969 120.472656 132.484375 119.765625 132.484375 C 119.054688 132.484375 118.355469 132.417969 117.660156 132.28125 C 116.96875 132.144531 116.292969 131.945312 115.636719 131.675781 C 114.984375 131.410156 114.359375 131.082031 113.769531 130.695312 C 113.179688 130.308594 112.628906 129.867188 112.125 129.375 C 111.617188 128.882812 111.164062 128.34375 110.761719 127.761719 C 110.363281 127.183594 110.019531 126.566406 109.738281 125.917969 C 109.457031 125.273438 109.242188 124.605469 109.089844 123.914062 C 108.9375 123.222656 108.855469 122.527344 108.839844 121.820312 L 108.839844 107.066406 C 108.835938 105.992188 108.992188 104.941406 109.300781 103.914062 C 109.609375 102.886719 110.058594 101.925781 110.652344 101.027344 C 111.246094 100.132812 111.957031 99.34375 112.785156 98.660156 C 113.613281 97.972656 114.523438 97.421875 115.511719 97.003906 C 115.925781 96.832031 116.347656 96.683594 116.78125 96.5625 C 117.210938 96.441406 117.648438 96.347656 118.09375 96.28125 C 118.535156 96.210938 118.980469 96.171875 119.429688 96.160156 C 119.878906 96.148438 120.328125 96.160156 120.773438 96.203125 C 121.21875 96.246094 121.660156 96.316406 122.101562 96.414062 C 122.539062 96.511719 122.96875 96.632812 123.390625 96.78125 C 123.8125 96.933594 124.226562 97.109375 124.625 97.308594 C 125.027344 97.507812 125.414062 97.734375 125.789062 97.980469 C 126.160156 98.230469 126.519531 98.5 126.859375 98.789062 C 127.199219 99.082031 127.519531 99.394531 127.820312 99.726562 C 128.125 100.054688 128.402344 100.40625 128.664062 100.769531 C 128.921875 101.136719 129.15625 101.515625 129.367188 101.910156 C 129.578125 102.304688 129.765625 102.710938 129.929688 103.128906 C 130.089844 103.546875 130.226562 103.972656 130.335938 104.410156 C 130.441406 104.84375 130.523438 105.28125 130.578125 105.726562 C 130.632812 106.171875 130.660156 106.617188 130.660156 107.066406 Z M 130.691406 107.066406 " fill-opacity="1" fill-rule="nonzero"/><path fill="#eab896" d="M 130.691406 107.066406 L 130.691406 118.445312 C 129.332031 119.511719 127.835938 120.332031 126.203125 120.902344 C 124.570312 121.472656 122.890625 121.765625 121.164062 121.777344 C 116.089844 121.777344 111.402344 119.882812 108.839844 118.617188 L 108.839844 107.066406 C 108.835938 105.992188 108.992188 104.941406 109.300781 103.914062 C 109.609375 102.886719 110.058594 101.925781 110.652344 101.027344 C 111.246094 100.132812 111.957031 99.34375 112.785156 98.660156 C 113.613281 97.972656 114.523438 97.421875 115.511719 97.003906 L 123.964844 97.003906 C 124.957031 97.421875 125.863281 97.976562 126.691406 98.660156 C 127.519531 99.347656 128.226562 100.136719 128.820312 101.03125 C 129.414062 101.925781 129.867188 102.886719 130.175781 103.914062 C 130.484375 104.941406 130.640625 105.992188 130.640625 107.066406 Z M 130.691406 107.066406 " fill-opacity="1" fill-rule="nonzero"/><path fill="#d856ba" d="M 169.097656 167.882812 C 168.457031 176.765625 168.074219 185.648438 167.71875 194.53125 C 167.667969 195.804688 167.613281 197.070312 167.5625 198.339844 C 167.523438 199.484375 167.296875 200.933594 167.792969 201.988281 C 167.855469 202.09375 167.9375 202.171875 168.042969 202.234375 C 168.152344 202.292969 168.265625 202.324219 168.386719 202.324219 C 168.507812 202.324219 168.621094 202.292969 168.726562 202.234375 C 168.832031 202.171875 168.917969 202.09375 168.980469 201.988281 C 169.488281 201.105469 169.394531 199.839844 169.453125 198.84375 C 169.519531 197.707031 169.554688 196.5625 169.605469 195.421875 C 169.691406 193.222656 169.78125 191.019531 169.867188 188.820312 C 170.027344 184.378906 170.167969 179.9375 170.289062 175.496094 C 170.367188 172.957031 170.417969 170.417969 170.4375 167.878906 C 170.449219 167.019531 169.160156 167.035156 169.097656 167.882812 Z M 169.097656 167.882812 " fill-opacity="1" fill-rule="nonzero"/><path fill="#d856ba" d="M 78.5 197.800781 C 78.476562 196.664062 78.449219 195.527344 78.414062 194.382812 L 78.234375 187.792969 C 78.109375 183.351562 77.992188 178.910156 77.796875 174.46875 C 77.6875 171.929688 77.519531 169.398438 77.347656 166.863281 C 77.332031 166.695312 77.261719 166.554688 77.136719 166.441406 C 77.015625 166.328125 76.867188 166.273438 76.699219 166.273438 C 76.53125 166.273438 76.386719 166.328125 76.261719 166.441406 C 76.136719 166.554688 76.066406 166.695312 76.050781 166.863281 C 75.890625 175.746094 76.167969 184.628906 76.378906 193.472656 C 76.378906 194.742188 76.4375 196.007812 76.480469 197.273438 C 76.441406 198.542969 76.53125 199.800781 76.753906 201.050781 C 76.949219 201.832031 78.238281 201.886719 78.421875 201.050781 C 78.558594 199.96875 78.585938 198.886719 78.5 197.800781 Z M 78.5 197.800781 " fill-opacity="1" fill-rule="nonzero"/><path fill="#d856ba" d="M 73.09375 193.953125 C 73.03125 193.75 72.957031 193.554688 72.859375 193.367188 L 72.335938 192.082031 L 71.351562 189.601562 L 69.332031 184.527344 C 67.992188 181.195312 66.730469 177.75 65.078125 174.535156 C 64.996094 174.414062 64.882812 174.335938 64.742188 174.292969 C 64.601562 174.253906 64.464844 174.261719 64.332031 174.320312 C 64.195312 174.375 64.09375 174.46875 64.027344 174.597656 C 63.957031 174.726562 63.9375 174.863281 63.96875 175.007812 C 64.960938 178.492188 66.390625 181.863281 67.714844 185.238281 L 69.660156 190.203125 C 70.007812 191.066406 70.347656 191.933594 70.683594 192.800781 L 71.152344 193.980469 C 71.226562 194.222656 71.316406 194.453125 71.429688 194.675781 C 71.578125 194.855469 71.75 195.015625 71.941406 195.148438 C 72.148438 195.339844 72.386719 195.382812 72.648438 195.273438 C 72.910156 195.167969 73.042969 194.96875 73.054688 194.6875 C 73.105469 194.445312 73.117188 194.199219 73.09375 193.953125 Z M 73.09375 193.953125 " fill-opacity="1" fill-rule="nonzero"/><path fill="#d856ba" d="M 188.949219 183.304688 C 188.007812 184.339844 187.527344 185.75 186.957031 187.007812 C 186.382812 188.269531 185.738281 189.683594 185.132812 191.023438 C 184.527344 192.359375 183.964844 193.628906 183.378906 194.910156 C 183.089844 195.558594 182.824219 196.214844 182.507812 196.863281 C 182.375 197.167969 182.234375 197.472656 182.101562 197.785156 C 181.921875 198.183594 181.921875 198.585938 182.101562 198.984375 C 182.132812 199.089844 182.1875 199.1875 182.265625 199.269531 C 182.339844 199.351562 182.429688 199.414062 182.535156 199.457031 C 182.636719 199.5 182.746094 199.515625 182.859375 199.507812 C 182.972656 199.503906 183.078125 199.472656 183.175781 199.417969 C 183.535156 199.308594 183.8125 199.089844 183.996094 198.761719 C 184.160156 198.46875 184.277344 198.144531 184.410156 197.839844 C 184.703125 197.191406 184.992188 196.535156 185.28125 195.886719 C 185.882812 194.542969 186.488281 193.203125 187.078125 191.855469 L 188.804688 187.9375 C 189.359375 186.621094 190.132812 185.277344 190.277344 183.839844 C 190.253906 183.507812 190.089844 183.28125 189.78125 183.15625 C 189.472656 183.03125 189.195312 183.082031 188.949219 183.304688 Z M 188.949219 183.304688 " fill-opacity="1" fill-rule="nonzero"/><path fill="#d856ba" d="M 136.992188 125.414062 C 136.984375 125.265625 136.9375 125.132812 136.847656 125.019531 C 136.753906 124.902344 136.636719 124.824219 136.496094 124.789062 C 136.355469 124.75 136.214844 124.753906 136.074219 124.808594 C 135.9375 124.863281 135.828125 124.949219 135.75 125.074219 C 135.101562 126.285156 134.765625 127.621094 134.132812 128.84375 C 133.523438 130.011719 132.785156 131.085938 131.90625 132.070312 C 130.136719 134.074219 127.996094 135.542969 125.488281 136.484375 C 120.34375 138.371094 114.640625 137.089844 110.472656 133.617188 C 108.070312 131.621094 106.402344 129.132812 105.46875 126.152344 C 105.417969 125.996094 105.324219 125.878906 105.179688 125.800781 C 105.035156 125.722656 104.886719 125.707031 104.726562 125.75 C 104.570312 125.792969 104.449219 125.886719 104.367188 126.023438 C 104.285156 126.164062 104.261719 126.316406 104.300781 126.472656 C 105.695312 132.234375 110.554688 136.933594 116.222656 138.527344 C 122.003906 140.152344 128.175781 138.257812 132.425781 134.117188 C 133.613281 132.960938 134.617188 131.667969 135.445312 130.230469 C 136.277344 128.792969 137.113281 127.128906 136.992188 125.414062 Z M 136.992188 125.414062 " fill-opacity="1" fill-rule="nonzero"/><path fill="#f9dfbb" d="M 117.4375 25.691406 C 87.34375 25.691406 85.179688 62 87.699219 79.472656 C 90.21875 96.945312 103.828125 115.78125 120.660156 115.78125 C 137.496094 115.78125 150.398438 94.203125 150.398438 76.730469 C 150.398438 59.257812 154.699219 25.691406 117.4375 25.691406 Z M 117.4375 25.691406 " fill-opacity="1" fill-rule="nonzero"/><path fill="#3d3d54" d="M 135.4375 38.066406 C 135.4375 38.066406 135.0625 58.355469 116.433594 61.496094 L 117.84375 50.515625 C 117.84375 50.515625 112.097656 67.664062 84.804688 60.042969 C 84.804688 60.042969 83.527344 23.398438 120.402344 23.84375 C 137.992188 23.867188 135.4375 38.066406 135.4375 38.066406 Z M 135.4375 38.066406 " fill-opacity="1" fill-rule="nonzero"/><path fill="#3d3d54" d="M 134.164062 37.507812 C 134.164062 37.507812 131.742188 57.792969 151.640625 62.488281 C 151.640625 62.488281 155.851562 33.347656 131.617188 27.296875 Z M 134.164062 37.507812 " fill-opacity="1" fill-rule="nonzero"/><path fill="#f9dfbb" d="M 87.804688 65.050781 C 87.804688 65.050781 86.136719 58.941406 80.757812 59.78125 C 75.378906 60.617188 72.074219 73.953125 89.917969 84.851562 Z M 87.804688 65.050781 " fill-opacity="1" fill-rule="nonzero"/><path fill="#f9dfbb" d="M 149.625 65.050781 C 149.625 65.050781 151.265625 58.941406 156.667969 59.78125 C 162.066406 60.617188 165.355469 73.953125 147.511719 84.851562 Z M 149.625 65.050781 " fill-opacity="1" fill-rule="nonzero"/><path fill="#eab896" d="M 86.601562 67.769531 C 86.367188 67.136719 86.082031 66.527344 85.746094 65.9375 C 85.429688 65.363281 85.058594 64.828125 84.632812 64.328125 C 84.214844 63.855469 83.757812 63.425781 83.265625 63.035156 C 83.085938 62.863281 82.867188 62.78125 82.621094 62.78125 C 82.371094 62.78125 82.15625 62.863281 81.976562 63.035156 C 81.804688 63.214844 81.71875 63.429688 81.71875 63.679688 C 81.71875 63.925781 81.804688 64.140625 81.976562 64.320312 C 82.136719 64.492188 82.28125 64.679688 82.410156 64.878906 C 82.480469 64.976562 82.554688 65.070312 82.632812 65.164062 L 82.675781 65.230469 C 82.765625 65.347656 82.847656 65.472656 82.933594 65.59375 C 83.265625 66.066406 83.578125 66.554688 83.859375 67.058594 C 83.996094 67.304688 84.121094 67.558594 84.238281 67.8125 C 84.238281 67.871094 84.289062 67.929688 84.316406 67.992188 C 84.316406 68.011719 84.316406 68.027344 84.316406 68.046875 C 84.367188 68.175781 84.417969 68.296875 84.460938 68.417969 C 84.691406 69.03125 84.804688 69.691406 85.074219 70.285156 C 85.199219 70.492188 85.375 70.640625 85.601562 70.730469 C 85.824219 70.820312 86.054688 70.835938 86.292969 70.777344 C 86.519531 70.710938 86.710938 70.578125 86.855469 70.386719 C 87 70.195312 87.074219 69.980469 87.082031 69.742188 C 87.039062 69.054688 86.878906 68.398438 86.601562 67.769531 Z M 86.601562 67.769531 " fill-opacity="1" fill-rule="nonzero"/><path fill="#eab896" d="M 87.554688 75.832031 C 87.285156 75.347656 86.8125 75.1875 86.378906 74.902344 L 86.203125 74.78125 L 86.070312 74.664062 C 85.933594 74.539062 85.800781 74.40625 85.679688 74.265625 C 85.648438 74.234375 85.621094 74.199219 85.597656 74.164062 C 85.550781 74.109375 85.511719 74.046875 85.472656 73.992188 C 85.375 73.832031 85.296875 73.664062 85.199219 73.503906 C 85.203125 73.492188 85.203125 73.480469 85.199219 73.464844 C 85.167969 73.359375 85.128906 73.253906 85.101562 73.144531 C 85.074219 73.03125 85.0625 73 85.046875 72.925781 C 85.027344 72.855469 85.046875 72.734375 85.019531 72.714844 C 85.007812 72.5625 85.007812 72.40625 85.019531 72.25 C 85.019531 72.25 85.019531 72.15625 85.019531 72.09375 C 85.019531 72.027344 85.019531 71.960938 85.019531 71.894531 C 85.054688 71.707031 85.109375 71.519531 85.171875 71.339844 C 85.171875 71.339844 85.222656 71.207031 85.238281 71.15625 C 85.257812 71.105469 85.308594 71.011719 85.3125 70.996094 C 85.394531 70.824219 85.484375 70.65625 85.585938 70.496094 L 85.769531 70.207031 L 85.808594 70.132812 C 86.140625 69.804688 86.421875 69.433594 86.652344 69.023438 C 86.898438 68.46875 86.300781 67.914062 85.796875 67.914062 C 85.15625 67.972656 84.613281 68.230469 84.167969 68.695312 C 83.769531 69.035156 83.4375 69.433594 83.171875 69.886719 C 82.613281 70.847656 82.382812 71.882812 82.488281 72.988281 C 82.589844 74.050781 82.960938 75.007812 83.597656 75.863281 C 84.261719 76.734375 85.617188 78.058594 86.832031 77.664062 C 87.019531 77.613281 87.1875 77.523438 87.332031 77.394531 C 87.480469 77.265625 87.589844 77.113281 87.660156 76.929688 C 87.730469 76.75 87.757812 76.5625 87.738281 76.367188 C 87.722656 76.175781 87.660156 75.996094 87.554688 75.832031 Z M 87.554688 75.832031 " fill-opacity="1" fill-rule="nonzero"/><path fill="#eab896" d="M 157.691406 62.941406 C 157.617188 62.757812 157.496094 62.613281 157.335938 62.503906 C 157.171875 62.394531 156.992188 62.339844 156.796875 62.339844 C 156.609375 62.347656 156.421875 62.371094 156.238281 62.414062 C 156.046875 62.46875 155.863281 62.542969 155.683594 62.632812 C 155.472656 62.742188 155.269531 62.863281 155.078125 63.007812 C 154.613281 63.328125 154.191406 63.699219 153.808594 64.117188 C 153.433594 64.53125 153.097656 64.972656 152.800781 65.449219 C 152.671875 65.660156 152.554688 65.875 152.445312 66.097656 C 152.242188 66.464844 152.132812 66.859375 152.117188 67.28125 C 152.109375 67.71875 152.296875 68.046875 152.675781 68.261719 C 153.988281 68.820312 154.34375 67.613281 154.828125 66.816406 C 154.945312 66.609375 155.070312 66.410156 155.207031 66.214844 L 155.289062 66.105469 C 155.34375 66.027344 155.410156 65.949219 155.472656 65.875 C 155.773438 65.539062 156.097656 65.222656 156.445312 64.925781 C 156.527344 64.855469 156.863281 64.617188 156.539062 64.84375 C 156.691406 64.738281 156.828125 64.621094 156.972656 64.503906 C 157.117188 64.386719 157.15625 64.355469 157.246094 64.277344 C 157.351562 64.195312 157.441406 64.09375 157.507812 63.976562 L 157.507812 63.945312 C 157.777344 63.648438 157.835938 63.3125 157.691406 62.941406 Z M 157.691406 62.941406 " fill-opacity="1" fill-rule="nonzero"/><path fill="#eab896" d="M 155.449219 67.515625 C 155.183594 67.214844 154.878906 66.972656 154.527344 66.78125 C 154.300781 66.652344 154.0625 66.570312 153.804688 66.535156 C 153.667969 66.523438 153.527344 66.523438 153.390625 66.535156 C 153.230469 66.566406 153.21875 66.566406 153.359375 66.535156 L 153.199219 66.535156 C 152.988281 66.539062 152.804688 66.609375 152.644531 66.746094 C 152.484375 66.882812 152.386719 67.050781 152.347656 67.257812 C 152.3125 67.464844 152.34375 67.660156 152.445312 67.839844 C 152.546875 68.023438 152.695312 68.152344 152.890625 68.230469 C 152.96875 68.304688 153.054688 68.367188 153.148438 68.425781 L 153.3125 68.574219 C 153.34375 68.617188 153.375 68.65625 153.402344 68.707031 C 153.476562 68.824219 153.539062 68.945312 153.597656 69.070312 C 153.597656 69.125 153.636719 69.179688 153.648438 69.234375 C 153.660156 69.289062 153.703125 69.480469 153.730469 69.589844 C 153.730469 69.613281 153.730469 69.636719 153.730469 69.65625 C 153.730469 69.710938 153.730469 69.769531 153.730469 69.828125 C 153.730469 69.890625 153.730469 70 153.730469 70.085938 C 153.730469 70.167969 153.730469 70.179688 153.730469 70.21875 L 153.730469 70.269531 L 153.664062 70.527344 C 153.664062 70.617188 153.601562 70.699219 153.582031 70.789062 C 153.578125 70.800781 153.578125 70.816406 153.582031 70.828125 C 153.417969 71.15625 153.230469 71.46875 153.023438 71.773438 C 152.925781 71.921875 152.8125 72.070312 152.707031 72.222656 L 152.675781 72.261719 L 152.429688 72.566406 C 152.238281 72.792969 152.09375 73.050781 152 73.332031 C 151.960938 73.484375 151.941406 73.640625 151.953125 73.796875 L 151.996094 74.105469 C 152.140625 74.4375 152.152344 74.476562 152.035156 74.21875 C 152.097656 74.429688 152.214844 74.597656 152.386719 74.730469 C 152.5625 74.863281 152.757812 74.929688 152.976562 74.9375 C 152.558594 74.898438 153.042969 74.9375 153.191406 74.9375 C 153.449219 74.921875 153.691406 74.851562 153.914062 74.726562 C 154.167969 74.566406 154.382812 74.363281 154.558594 74.121094 C 154.894531 73.722656 155.195312 73.304688 155.472656 72.867188 C 156.03125 72 156.328125 71.050781 156.367188 70.023438 C 156.363281 69.078125 156.058594 68.242188 155.449219 67.515625 Z M 155.449219 67.515625 " fill-opacity="1" fill-rule="nonzero"/><path fill="#eab896" d="M 236.226562 160.671875 C 236.195312 160.449219 236.09375 160.261719 235.921875 160.113281 C 235.75 159.960938 235.550781 159.886719 235.324219 159.882812 C 233.976562 159.988281 232.640625 160.195312 231.320312 160.503906 L 229.425781 160.878906 C 228.757812 160.96875 228.105469 161.113281 227.46875 161.316406 C 227.230469 161.410156 227.050781 161.570312 226.921875 161.789062 C 226.796875 162.007812 226.75 162.242188 226.78125 162.492188 C 226.816406 162.746094 226.925781 162.960938 227.105469 163.136719 C 227.289062 163.316406 227.503906 163.417969 227.757812 163.449219 C 228.449219 163.382812 229.128906 163.257812 229.804688 163.082031 L 231.761719 162.660156 C 233.054688 162.433594 234.324219 162.109375 235.570312 161.6875 C 235.789062 161.621094 235.964844 161.492188 236.085938 161.300781 C 236.210938 161.109375 236.257812 160.898438 236.226562 160.671875 Z M 236.226562 160.671875 " fill-opacity="1" fill-rule="nonzero"/><path fill="#eab896" d="M 41.492188 146.558594 C 40.378906 147.113281 39.445312 148.121094 38.109375 148.023438 C 37.371094 147.976562 36.5 147.46875 36.625 146.636719 C 36.785156 146.050781 37.039062 145.511719 37.386719 145.015625 C 37.757812 144.367188 38.167969 143.742188 38.613281 143.140625 C 39.414062 142 40.285156 140.921875 41.230469 139.898438 C 41.367188 139.765625 41.441406 139.605469 41.445312 139.414062 C 41.449219 139.226562 41.386719 139.0625 41.253906 138.921875 C 41.125 138.785156 40.964844 138.714844 40.773438 138.710938 C 40.582031 138.703125 40.417969 138.765625 40.28125 138.898438 C 38.910156 140.046875 37.675781 141.332031 36.582031 142.746094 C 35.550781 144.105469 34.164062 145.730469 34.617188 147.570312 C 35.003906 149.097656 36.507812 149.984375 38 150.113281 C 39.667969 150.257812 41.570312 149.273438 42.761719 148.160156 C 43.617188 147.335938 42.503906 146.003906 41.492188 146.558594 Z M 41.492188 146.558594 " fill-opacity="1" fill-rule="nonzero"/><path fill="#eab896" d="M 50.105469 151.589844 C 48.792969 150.945312 47.542969 150.195312 46.359375 149.335938 L 46.164062 149.191406 L 46.121094 149.15625 L 46.0625 149.113281 L 45.640625 148.773438 C 45.359375 148.546875 45.085938 148.3125 44.808594 148.082031 C 44.257812 147.523438 43.640625 147.054688 42.957031 146.675781 C 42.640625 146.503906 42.339844 146.527344 42.054688 146.738281 C 41.765625 146.957031 41.667969 147.242188 41.765625 147.59375 C 42.09375 148.367188 42.574219 149.035156 43.207031 149.597656 C 43.746094 150.128906 44.320312 150.625 44.925781 151.085938 C 46.160156 152.070312 47.480469 152.933594 48.882812 153.671875 C 49.023438 153.746094 49.167969 153.789062 49.324219 153.804688 C 49.480469 153.824219 49.632812 153.808594 49.785156 153.765625 C 49.933594 153.722656 50.070312 153.65625 50.195312 153.558594 C 50.320312 153.464844 50.421875 153.347656 50.5 153.214844 C 50.578125 153.078125 50.628906 152.933594 50.652344 152.78125 C 50.675781 152.625 50.667969 152.472656 50.632812 152.320312 C 50.59375 152.167969 50.53125 152.027344 50.441406 151.902344 C 50.351562 151.773438 50.238281 151.667969 50.105469 151.582031 Z M 50.105469 151.589844 " fill-opacity="1" fill-rule="nonzero"/><path fill="#eab896" d="M 34.683594 143.226562 L 34.257812 142.628906 L 33.371094 141.433594 C 33.0625 141.003906 32.75 140.558594 32.414062 140.140625 C 32.265625 139.949219 32.117188 139.753906 31.960938 139.585938 C 31.804688 139.421875 31.585938 139.214844 31.449219 139.070312 C 31.320312 138.949219 31.171875 138.878906 30.992188 138.871094 C 30.816406 138.859375 30.660156 138.90625 30.519531 139.015625 C 30.382812 139.125 30.292969 139.265625 30.257812 139.4375 C 30.226562 139.609375 30.25 139.773438 30.335938 139.925781 C 30.429688 140.121094 30.523438 140.378906 30.640625 140.597656 C 30.757812 140.8125 30.890625 141.019531 31.019531 141.230469 C 31.269531 141.652344 31.574219 142.058594 31.820312 142.46875 C 32.066406 142.878906 32.347656 143.296875 32.621094 143.707031 L 33.035156 144.316406 C 33.121094 144.46875 33.222656 144.613281 33.339844 144.742188 C 33.550781 144.941406 33.804688 145.042969 34.09375 145.042969 C 34.300781 145.042969 34.488281 144.976562 34.652344 144.851562 C 34.816406 144.726562 34.929688 144.566406 34.984375 144.367188 C 35.085938 143.933594 34.988281 143.554688 34.683594 143.226562 Z M 34.683594 143.226562 " fill-opacity="1" fill-rule="nonzero"/><path fill="#eab896" d="M 33.195312 150.445312 C 32.507812 149.425781 31.753906 148.460938 30.925781 147.554688 C 30.546875 147.132812 30.144531 146.742188 29.714844 146.375 C 29.449219 146.144531 29.167969 145.9375 28.867188 145.753906 C 28.820312 145.722656 28.769531 145.695312 28.71875 145.671875 C 28.5 145.570312 28.4375 145.542969 28.523438 145.59375 C 28.34375 145.515625 28.171875 145.460938 27.964844 145.386719 C 27.679688 145.3125 27.449219 145.390625 27.269531 145.625 C 27.09375 145.863281 27.074219 146.109375 27.222656 146.363281 C 27.289062 146.488281 27.339844 146.621094 27.410156 146.742188 C 27.320312 146.597656 27.476562 146.875 27.488281 146.898438 C 27.523438 146.960938 27.5625 147.019531 27.605469 147.074219 C 27.792969 147.335938 27.988281 147.585938 28.195312 147.832031 C 28.5625 148.265625 28.941406 148.6875 29.308594 149.117188 C 29.675781 149.550781 30.023438 149.941406 30.347656 150.378906 L 30.480469 150.558594 L 30.714844 150.878906 C 30.890625 151.117188 31.0625 151.363281 31.230469 151.605469 C 31.308594 151.734375 31.40625 151.847656 31.527344 151.9375 C 31.648438 152.027344 31.78125 152.089844 31.929688 152.128906 C 32.078125 152.167969 32.222656 152.175781 32.375 152.152344 C 32.523438 152.132812 32.664062 152.082031 32.792969 152.003906 C 32.925781 151.929688 33.035156 151.828125 33.125 151.710938 C 33.214844 151.589844 33.28125 151.453125 33.316406 151.308594 C 33.355469 151.164062 33.363281 151.015625 33.34375 150.863281 C 33.320312 150.714844 33.273438 150.574219 33.195312 150.445312 Z M 33.195312 150.445312 " fill-opacity="1" fill-rule="nonzero"/><path fill="#eab896" d="M 39.796875 137.445312 C 39.75 137.375 39.699219 137.308594 39.644531 137.25 C 39.585938 137.195312 39.519531 137.144531 39.453125 137.097656 C 39.1875 136.890625 38.949219 136.65625 38.746094 136.390625 L 38.863281 136.539062 L 38.660156 136.289062 C 38.542969 136.101562 38.410156 135.925781 38.261719 135.761719 C 38.050781 135.558594 37.8125 135.511719 37.542969 135.628906 C 37.4375 135.671875 37.347656 135.738281 37.277344 135.828125 C 37.179688 135.945312 37.132812 136.078125 37.136719 136.226562 C 37.136719 136.328125 37.148438 136.425781 37.175781 136.523438 C 37.210938 136.609375 37.253906 136.707031 37.292969 136.792969 C 37.332031 136.882812 37.371094 136.960938 37.410156 137.042969 C 37.53125 137.253906 37.667969 137.453125 37.828125 137.636719 C 37.945312 137.777344 38.070312 137.910156 38.199219 138.039062 L 38.417969 138.226562 C 38.578125 138.375 38.761719 138.484375 38.972656 138.546875 C 39.296875 138.628906 39.5625 138.542969 39.769531 138.28125 C 39.851562 138.175781 39.898438 138.054688 39.914062 137.921875 C 39.933594 137.746094 39.898438 137.585938 39.796875 137.445312 Z M 39.796875 137.445312 " fill-opacity="1" fill-rule="nonzero"/><path fill="#eab896" d="M 127.964844 97.414062 C 127.394531 97.585938 126.835938 97.796875 126.296875 98.046875 C 125.828125 98.296875 125.34375 98.511719 124.84375 98.6875 C 123.75 99.066406 122.625 99.28125 121.46875 99.335938 C 119.144531 99.378906 116.929688 98.90625 114.828125 97.914062 C 114.167969 97.632812 113.320312 98.46875 113.976562 99.027344 C 115.980469 100.769531 118.753906 101.464844 121.367188 101.40625 C 122.675781 101.378906 123.953125 101.167969 125.199219 100.769531 C 125.84375 100.554688 126.46875 100.296875 127.074219 99.996094 C 127.730469 99.679688 128.273438 99.230469 128.710938 98.648438 C 129.097656 98.136719 128.710938 97.148438 127.964844 97.414062 Z M 127.964844 97.414062 " fill-opacity="1" fill-rule="nonzero"/><path fill="#3d3d54" d="M 107.585938 74.671875 C 107.585938 75.175781 107.53125 75.660156 107.421875 76.128906 C 107.316406 76.59375 107.160156 77.007812 106.960938 77.363281 C 106.757812 77.71875 106.527344 77.996094 106.265625 78.1875 C 106.003906 78.382812 105.730469 78.480469 105.445312 78.480469 C 105.160156 78.480469 104.886719 78.382812 104.625 78.1875 C 104.363281 77.996094 104.132812 77.71875 103.929688 77.363281 C 103.730469 77.007812 103.574219 76.59375 103.46875 76.128906 C 103.359375 75.660156 103.304688 75.175781 103.304688 74.671875 C 103.304688 74.164062 103.359375 73.679688 103.46875 73.214844 C 103.574219 72.746094 103.730469 72.335938 103.929688 71.976562 C 104.132812 71.621094 104.363281 71.34375 104.625 71.152344 C 104.886719 70.957031 105.160156 70.863281 105.445312 70.863281 C 105.730469 70.863281 106.003906 70.957031 106.265625 71.152344 C 106.527344 71.34375 106.757812 71.621094 106.960938 71.976562 C 107.160156 72.335938 107.316406 72.746094 107.421875 73.214844 C 107.53125 73.679688 107.585938 74.164062 107.585938 74.671875 Z M 107.585938 74.671875 " fill-opacity="1" fill-rule="nonzero"/><path fill="#3d3d54" d="M 135.328125 74.671875 C 135.328125 75.175781 135.273438 75.660156 135.164062 76.128906 C 135.054688 76.59375 134.902344 77.007812 134.699219 77.363281 C 134.5 77.71875 134.269531 77.996094 134.007812 78.1875 C 133.742188 78.382812 133.46875 78.480469 133.1875 78.480469 C 132.902344 78.480469 132.628906 78.382812 132.367188 78.1875 C 132.105469 77.996094 131.875 77.71875 131.671875 77.363281 C 131.472656 77.007812 131.316406 76.59375 131.207031 76.128906 C 131.101562 75.660156 131.046875 75.175781 131.046875 74.671875 C 131.046875 74.164062 131.101562 73.679688 131.207031 73.214844 C 131.316406 72.746094 131.472656 72.335938 131.671875 71.976562 C 131.875 71.621094 132.105469 71.34375 132.367188 71.152344 C 132.628906 70.957031 132.902344 70.863281 133.1875 70.863281 C 133.46875 70.863281 133.742188 70.957031 134.007812 71.152344 C 134.269531 71.34375 134.5 71.621094 134.699219 71.976562 C 134.902344 72.335938 135.054688 72.746094 135.164062 73.214844 C 135.273438 73.679688 135.328125 74.164062 135.328125 74.671875 Z M 135.328125 74.671875 " fill-opacity="1" fill-rule="nonzero"/><path fill="#3d3d54" d="M 102.441406 66.371094 L 102.503906 66.371094 C 102.503906 66.371094 102.46875 66.363281 102.441406 66.371094 Z M 102.441406 66.371094 " fill-opacity="1" fill-rule="nonzero"/><path fill="#3d3d54" d="M 107.730469 64.25 C 106.554688 63.683594 105.316406 63.464844 104.015625 63.601562 C 103.3125 63.671875 102.644531 63.871094 102.015625 64.1875 C 101.898438 64.253906 101.792969 64.339844 101.679688 64.410156 L 101.523438 64.503906 L 101.347656 64.644531 L 101.257812 64.710938 L 101.136719 64.804688 C 101.054688 64.867188 100.984375 64.933594 100.917969 65.011719 C 100.847656 65.089844 100.78125 65.171875 100.722656 65.261719 C 100.636719 65.484375 100.609375 65.546875 100.640625 65.445312 C 100.667969 65.339844 100.660156 65.351562 100.605469 65.476562 C 100.441406 65.773438 100.460938 66.054688 100.667969 66.324219 C 100.871094 66.585938 101.132812 66.683594 101.457031 66.613281 C 101.558594 66.613281 101.570312 66.613281 101.457031 66.613281 L 101.78125 66.570312 C 101.894531 66.542969 102.007812 66.511719 102.121094 66.476562 C 102.160156 66.476562 102.3125 66.402344 102.402344 66.382812 C 102.324219 66.382812 102.332031 66.382812 102.402344 66.382812 C 102.476562 66.382812 102.664062 66.347656 102.796875 66.324219 L 103.152344 66.253906 C 103.222656 66.253906 103.632812 66.183594 103.277344 66.253906 L 103.992188 66.253906 C 104.238281 66.253906 104.476562 66.253906 104.71875 66.253906 L 105.183594 66.253906 C 105.421875 66.304688 105.65625 66.347656 105.890625 66.421875 C 106.007812 66.453125 106.117188 66.5 106.234375 66.535156 L 106.339844 66.535156 C 106.492188 66.621094 106.652344 66.671875 106.824219 66.695312 C 106.996094 66.714844 107.164062 66.703125 107.332031 66.660156 C 107.496094 66.617188 107.652344 66.542969 107.789062 66.441406 C 107.925781 66.335938 108.042969 66.210938 108.132812 66.066406 C 108.226562 65.917969 108.289062 65.757812 108.316406 65.585938 C 108.347656 65.414062 108.34375 65.246094 108.308594 65.074219 C 108.269531 64.90625 108.203125 64.75 108.101562 64.605469 C 108 64.460938 107.878906 64.34375 107.730469 64.25 Z M 107.730469 64.25 " fill-opacity="1" fill-rule="nonzero"/><path fill="#3d3d54" d="M 137.011719 63.457031 C 136.433594 62.882812 135.75 62.472656 134.972656 62.230469 C 134.285156 61.984375 133.582031 61.855469 132.851562 61.847656 C 131.417969 61.8125 129.738281 62.269531 128.78125 63.394531 C 128.5625 63.589844 128.4375 63.832031 128.40625 64.121094 C 128.378906 64.414062 128.453125 64.675781 128.632812 64.910156 C 128.8125 65.140625 129.046875 65.28125 129.339844 65.328125 C 129.628906 65.371094 129.894531 65.3125 130.140625 65.148438 C 130.269531 65.109375 130.394531 65.058594 130.511719 64.992188 L 130.816406 64.839844 L 131.035156 64.761719 C 131.167969 64.722656 131.296875 64.675781 131.429688 64.644531 C 131.5625 64.609375 131.703125 64.589844 131.835938 64.5625 L 132.011719 64.527344 C 132.28125 64.511719 132.550781 64.511719 132.820312 64.527344 L 133.175781 64.527344 L 133.335938 64.554688 C 133.605469 64.613281 133.867188 64.6875 134.121094 64.78125 C 134.195312 64.808594 134.222656 64.828125 134.222656 64.832031 L 134.265625 64.832031 C 134.386719 64.894531 134.503906 64.960938 134.628906 65.03125 L 134.972656 65.261719 C 135.085938 65.351562 135.203125 65.4375 135.328125 65.515625 C 135.617188 65.683594 135.925781 65.730469 136.253906 65.667969 C 136.582031 65.601562 136.847656 65.4375 137.050781 65.171875 C 137.253906 64.917969 137.347656 64.628906 137.339844 64.304688 C 137.332031 63.984375 137.222656 63.699219 137.011719 63.457031 Z M 137.011719 63.457031 " fill-opacity="1" fill-rule="nonzero"/><path fill="#3d3d54" d="M 134.15625 64.78125 C 134.203125 64.832031 134.277344 64.847656 134.269531 64.839844 C 134.234375 64.828125 134.199219 64.8125 134.164062 64.789062 Z M 134.15625 64.78125 " fill-opacity="1" fill-rule="nonzero"/><path fill="#eab896" d="M 121.570312 83.480469 C 121.570312 83.296875 121.503906 83.136719 121.371094 83.007812 C 121.238281 82.875 121.082031 82.808594 120.894531 82.808594 C 120.710938 82.808594 120.550781 82.875 120.417969 83.007812 C 120.289062 83.136719 120.222656 83.296875 120.222656 83.480469 L 120.285156 84.757812 L 120.316406 85.386719 C 120.316406 85.601562 120.367188 85.816406 120.394531 86.035156 C 120.398438 86.21875 120.464844 86.375 120.589844 86.507812 C 120.800781 86.722656 121.042969 86.773438 121.324219 86.65625 C 121.601562 86.542969 121.738281 86.335938 121.734375 86.035156 C 121.734375 85.179688 121.640625 84.332031 121.570312 83.480469 Z M 121.570312 83.480469 " fill-opacity="1" fill-rule="nonzero"/><path fill="#f79fe3" d="M 133.949219 243.957031 C 133.898438 243.554688 133.828125 243.15625 133.730469 242.757812 C 133.671875 242.4375 133.605469 242.117188 133.515625 241.800781 C 133.433594 241.414062 133.269531 241.070312 133.019531 240.765625 C 132.996094 240.726562 132.96875 240.6875 132.9375 240.648438 L 132.9375 240.621094 C 132.886719 240.449219 132.785156 240.316406 132.632812 240.21875 C 132.484375 240.121094 132.320312 240.082031 132.140625 240.105469 C 131.960938 240.128906 131.8125 240.207031 131.695312 240.34375 C 131.574219 240.480469 131.515625 240.636719 131.511719 240.816406 C 131.511719 240.816406 131.511719 240.988281 131.511719 240.949219 C 131.515625 240.972656 131.515625 240.996094 131.511719 241.015625 C 131.382812 241.363281 131.347656 241.722656 131.402344 242.089844 C 131.445312 242.488281 131.507812 242.886719 131.578125 243.28125 C 131.730469 244.132812 131.867188 245.578125 133.074219 245.417969 C 133.289062 245.386719 133.476562 245.296875 133.636719 245.152344 C 133.796875 245.007812 133.902344 244.828125 133.953125 244.621094 C 133.988281 244.398438 133.988281 244.179688 133.949219 243.957031 Z M 133.949219 243.957031 " fill-opacity="1" fill-rule="nonzero"/><path fill="#f79fe3" d="M 138.164062 243.46875 C 138.132812 243.285156 138.109375 243.097656 138.070312 242.914062 C 137.996094 242.578125 137.914062 242.238281 137.824219 241.90625 C 137.679688 241.15625 137.445312 240.4375 137.113281 239.75 C 137.03125 239.613281 136.917969 239.511719 136.769531 239.453125 C 136.621094 239.390625 136.46875 239.382812 136.3125 239.421875 C 136.160156 239.46875 136.039062 239.554688 135.941406 239.679688 C 135.84375 239.804688 135.792969 239.949219 135.789062 240.105469 C 135.8125 240.875 135.933594 241.628906 136.144531 242.367188 C 136.222656 242.703125 136.300781 243.042969 136.390625 243.375 C 136.433594 243.558594 136.496094 243.738281 136.550781 243.929688 C 136.609375 244.152344 136.691406 244.367188 136.796875 244.570312 C 136.886719 244.71875 137.011719 244.828125 137.175781 244.894531 C 137.339844 244.960938 137.503906 244.96875 137.675781 244.925781 C 137.835938 244.871094 137.96875 244.773438 138.070312 244.636719 C 138.171875 244.5 138.226562 244.347656 138.230469 244.175781 C 138.234375 243.9375 138.210938 243.703125 138.164062 243.46875 Z M 138.164062 243.46875 " fill-opacity="1" fill-rule="nonzero"/><path fill="#f79fe3" d="M 143.335938 241.175781 C 143.035156 239.722656 142.742188 238.269531 142.398438 236.820312 C 142.339844 236.621094 142.222656 236.472656 142.042969 236.375 C 141.867188 236.273438 141.675781 236.25 141.480469 236.304688 C 141.28125 236.359375 141.132812 236.476562 141.03125 236.65625 C 140.933594 236.832031 140.90625 237.019531 140.957031 237.21875 C 141.199219 238.65625 141.484375 240.089844 141.761719 241.523438 C 142.039062 242.953125 142.320312 244.386719 142.730469 245.78125 C 142.949219 246.5 144.191406 246.414062 144.105469 245.597656 C 143.921875 244.109375 143.667969 242.636719 143.335938 241.175781 Z M 143.335938 241.175781 " fill-opacity="1" fill-rule="nonzero"/><path fill="#f79fe3" d="M 147.570312 241.699219 C 147.570312 241.515625 147.507812 241.328125 147.46875 241.144531 C 147.402344 240.800781 147.347656 240.457031 147.269531 240.117188 C 147.191406 239.777344 147.125 239.429688 147.039062 239.09375 C 146.957031 238.761719 146.824219 238.375 146.730469 238.011719 C 146.679688 237.847656 146.585938 237.71875 146.441406 237.625 C 146.300781 237.53125 146.144531 237.496094 145.972656 237.519531 C 145.800781 237.539062 145.660156 237.613281 145.542969 237.742188 C 145.429688 237.871094 145.371094 238.023438 145.371094 238.195312 C 145.410156 238.613281 145.417969 239.027344 145.472656 239.441406 C 145.527344 239.851562 145.566406 240.140625 145.617188 240.488281 C 145.667969 240.839844 145.726562 241.175781 145.789062 241.523438 C 145.808594 241.992188 145.96875 242.40625 146.269531 242.769531 C 146.347656 242.851562 146.445312 242.910156 146.554688 242.949219 C 146.664062 242.984375 146.773438 242.996094 146.886719 242.980469 C 147.003906 242.964844 147.109375 242.925781 147.203125 242.863281 C 147.300781 242.800781 147.378906 242.71875 147.4375 242.621094 L 147.535156 242.375 C 147.5625 242.148438 147.574219 242.097656 147.5625 242.230469 C 147.59375 242.054688 147.59375 241.878906 147.570312 241.699219 Z M 147.570312 241.699219 " fill-opacity="1" fill-rule="nonzero"/><path fill="#f79fe3" d="M 153.441406 241.214844 C 153.441406 241.15625 153.402344 241.089844 153.382812 241.027344 C 153.335938 240.878906 153.285156 240.726562 153.242188 240.578125 C 153.148438 240.292969 153.046875 240.023438 152.945312 239.726562 C 152.847656 239.390625 152.722656 239.066406 152.574219 238.746094 L 152.574219 238.707031 L 152.472656 238.457031 L 152.300781 238.019531 C 152.246094 237.820312 152.132812 237.671875 151.953125 237.570312 C 151.773438 237.472656 151.585938 237.449219 151.390625 237.503906 C 151.191406 237.554688 151.042969 237.671875 150.941406 237.851562 C 150.839844 238.027344 150.816406 238.214844 150.871094 238.414062 C 151.027344 239.007812 151.171875 239.601562 151.355469 240.1875 C 151.445312 240.472656 151.527344 240.746094 151.628906 241.050781 C 151.714844 241.457031 151.882812 241.828125 152.128906 242.160156 C 152.351562 242.378906 152.613281 242.445312 152.914062 242.367188 C 153.207031 242.289062 153.390625 242.101562 153.46875 241.808594 C 153.511719 241.609375 153.5 241.410156 153.441406 241.214844 Z M 153.441406 241.214844 " fill-opacity="1" fill-rule="nonzero"/><path fill="#f79fe3" d="M 158.609375 237.609375 C 158.53125 237.445312 158.453125 237.285156 158.363281 237.128906 L 158.097656 236.667969 C 158.003906 236.515625 157.871094 236.414062 157.695312 236.363281 C 157.609375 236.339844 157.523438 236.339844 157.433594 236.363281 C 157.34375 236.367188 157.261719 236.394531 157.183594 236.441406 C 157.027344 236.535156 156.925781 236.667969 156.878906 236.839844 L 156.878906 237.019531 C 156.878906 237.136719 156.90625 237.25 156.96875 237.351562 L 157.203125 237.835938 C 157.28125 237.996094 157.367188 238.144531 157.457031 238.300781 C 157.550781 238.460938 157.6875 238.566406 157.863281 238.617188 C 157.953125 238.640625 158.046875 238.640625 158.136719 238.617188 C 158.226562 238.613281 158.308594 238.585938 158.386719 238.535156 C 158.542969 238.441406 158.648438 238.304688 158.703125 238.128906 L 158.703125 237.945312 C 158.703125 237.824219 158.671875 237.710938 158.609375 237.609375 Z M 158.609375 237.609375 " fill-opacity="1" fill-rule="nonzero"/><path fill="#f79fe3" d="M 164.03125 237.003906 C 163.832031 236.484375 163.632812 235.976562 163.417969 235.46875 C 163.207031 234.964844 162.984375 234.460938 162.773438 233.949219 C 162.652344 233.660156 162.519531 233.367188 162.367188 233.089844 C 162.21875 232.8125 161.996094 232.578125 161.875 232.3125 C 161.785156 232.160156 161.660156 232.054688 161.492188 232 C 161.324219 231.945312 161.160156 231.953125 161 232.023438 C 160.839844 232.089844 160.71875 232.203125 160.640625 232.359375 C 160.566406 232.515625 160.546875 232.679688 160.59375 232.851562 C 160.667969 233.121094 160.640625 233.445312 160.699219 233.726562 C 160.757812 234.015625 160.832031 234.300781 160.917969 234.582031 C 161.074219 235.105469 161.222656 235.625 161.382812 236.152344 C 161.546875 236.679688 161.71875 237.191406 161.890625 237.714844 C 161.980469 237.972656 162.0625 238.230469 162.167969 238.484375 C 162.222656 238.675781 162.320312 238.84375 162.457031 238.984375 C 162.367188 238.867188 162.414062 238.921875 162.589844 239.152344 C 162.765625 239.304688 162.964844 239.410156 163.191406 239.460938 C 163.378906 239.511719 163.566406 239.5 163.746094 239.425781 C 163.925781 239.351562 164.066406 239.230469 164.164062 239.0625 C 164.609375 238.378906 164.304688 237.679688 164.03125 237.003906 Z M 164.03125 237.003906 " fill-opacity="1" fill-rule="nonzero"/><path fill="#f79fe3" d="M 167.589844 235.132812 C 167.550781 235.007812 167.511719 234.894531 167.46875 234.769531 L 167.335938 234.421875 C 167.320312 234.335938 167.28125 234.261719 167.21875 234.199219 C 167.171875 234.125 167.109375 234.066406 167.035156 234.027344 C 166.875 233.941406 166.707031 233.921875 166.527344 233.960938 C 166.359375 234.007812 166.230469 234.109375 166.140625 234.261719 C 166.046875 234.417969 166.027344 234.585938 166.074219 234.765625 C 166.105469 234.886719 166.144531 235.007812 166.179688 235.125 C 166.210938 235.242188 166.257812 235.363281 166.300781 235.488281 C 166.320312 235.570312 166.363281 235.644531 166.421875 235.707031 C 166.464844 235.785156 166.527344 235.84375 166.605469 235.882812 C 166.683594 235.929688 166.765625 235.957031 166.855469 235.964844 C 166.945312 235.984375 167.035156 235.984375 167.125 235.964844 C 167.296875 235.917969 167.429688 235.816406 167.519531 235.660156 C 167.617188 235.492188 167.640625 235.316406 167.589844 235.132812 Z M 167.589844 235.132812 " fill-opacity="1" fill-rule="nonzero"/><path fill="#f79fe3" d="M 124.6875 243.425781 C 124.6875 243.160156 124.644531 242.871094 124.617188 242.636719 C 124.589844 242.40625 124.5625 242.109375 124.523438 241.84375 C 124.496094 241.503906 124.429688 241.175781 124.320312 240.855469 C 124.273438 240.695312 124.183594 240.5625 124.054688 240.460938 C 123.921875 240.359375 123.769531 240.304688 123.605469 240.300781 C 123.4375 240.304688 123.285156 240.355469 123.152344 240.460938 C 123.019531 240.5625 122.933594 240.695312 122.886719 240.855469 C 122.84375 241.039062 122.816406 241.222656 122.808594 241.410156 L 122.808594 241.53125 C 122.808594 241.394531 122.808594 241.394531 122.808594 241.53125 C 122.804688 241.628906 122.804688 241.730469 122.808594 241.828125 C 122.808594 242.097656 122.808594 242.382812 122.808594 242.648438 C 122.835938 243.332031 122.777344 244.140625 123.277344 244.675781 C 123.453125 244.851562 123.667969 244.921875 123.914062 244.878906 C 124.160156 244.851562 124.34375 244.730469 124.472656 244.519531 C 124.527344 244.453125 124.566406 244.378906 124.582031 244.292969 L 124.582031 244.242188 C 124.613281 244.167969 124.632812 244.09375 124.644531 244.015625 C 124.679688 243.820312 124.695312 243.625 124.6875 243.425781 Z M 124.6875 243.425781 " fill-opacity="1" fill-rule="nonzero"/><path fill="#f79fe3" d="M 118.34375 241.925781 C 118.34375 241.835938 118.316406 241.753906 118.265625 241.675781 C 118.226562 241.601562 118.171875 241.539062 118.097656 241.492188 C 118.03125 241.433594 117.957031 241.394531 117.871094 241.378906 L 117.691406 241.347656 C 117.574219 241.351562 117.460938 241.382812 117.359375 241.445312 L 117.226562 241.542969 C 117.140625 241.628906 117.085938 241.726562 117.050781 241.839844 C 116.976562 242.078125 116.902344 242.316406 116.824219 242.554688 C 116.800781 242.644531 116.800781 242.730469 116.824219 242.820312 C 116.828125 242.910156 116.851562 242.992188 116.902344 243.066406 C 116.941406 243.140625 116.996094 243.203125 117.070312 243.25 C 117.132812 243.308594 117.210938 243.347656 117.296875 243.363281 L 117.46875 243.363281 C 117.589844 243.367188 117.699219 243.335938 117.804688 243.277344 L 117.9375 243.175781 C 118.019531 243.09375 118.074219 242.996094 118.105469 242.882812 C 118.1875 242.644531 118.265625 242.40625 118.34375 242.164062 C 118.363281 242.085938 118.363281 242.007812 118.34375 241.925781 Z M 118.34375 241.925781 " fill-opacity="1" fill-rule="nonzero"/><path fill="#595972" d="M 92.648438 29.574219 C 92.53125 29.464844 92.394531 29.398438 92.234375 29.378906 C 92.078125 29.359375 91.925781 29.386719 91.785156 29.460938 C 90.78125 30.171875 89.964844 31.050781 89.328125 32.101562 C 89.011719 32.5625 88.710938 33.027344 88.425781 33.503906 C 88.289062 33.738281 88.15625 33.972656 88.027344 34.210938 C 87.769531 34.550781 87.636719 34.933594 87.625 35.359375 C 87.636719 35.714844 87.792969 35.984375 88.09375 36.175781 C 88.410156 36.355469 88.730469 36.355469 89.050781 36.175781 C 89.605469 35.875 89.832031 35.125 90.128906 34.609375 C 90.421875 34.09375 90.683594 33.652344 91 33.1875 C 91.320312 32.722656 91.609375 32.292969 91.925781 31.855469 C 92.253906 31.410156 92.53125 30.9375 92.757812 30.433594 C 92.835938 30.292969 92.863281 30.144531 92.84375 29.984375 C 92.824219 29.828125 92.757812 29.691406 92.648438 29.574219 Z M 92.648438 29.574219 " fill-opacity="1" fill-rule="nonzero"/><path fill="#595972" d="M 94.667969 31.578125 C 94.519531 31.492188 94.359375 31.460938 94.1875 31.484375 C 94.015625 31.507812 93.871094 31.578125 93.75 31.699219 C 93.699219 31.753906 93.648438 31.800781 93.59375 31.855469 C 93.515625 31.945312 93.441406 32.039062 93.375 32.136719 C 93.34375 32.195312 93.375 32.171875 93.421875 32.070312 C 93.359375 32.140625 93.300781 32.21875 93.253906 32.300781 C 93.210938 32.359375 93.171875 32.425781 93.125 32.492188 L 93.269531 32.304688 C 92.996094 32.6875 92.757812 33.09375 92.558594 33.519531 C 92.425781 33.757812 92.308594 34 92.203125 34.25 L 92.097656 34.515625 C 92.097656 34.566406 92.054688 34.621094 92.035156 34.671875 C 92 34.855469 92 35.039062 92.035156 35.226562 L 92.035156 34.980469 L 92.035156 35.03125 C 92.035156 35.195312 92.078125 35.351562 92.164062 35.492188 C 92.230469 35.597656 92.3125 35.683594 92.414062 35.757812 C 92.511719 35.828125 92.625 35.878906 92.742188 35.902344 C 92.863281 35.929688 92.984375 35.933594 93.105469 35.910156 C 93.226562 35.886719 93.339844 35.84375 93.445312 35.773438 C 93.492188 35.746094 93.539062 35.710938 93.582031 35.675781 C 93.785156 35.476562 93.949219 35.246094 94.066406 34.988281 C 94.171875 34.769531 94.273438 34.554688 94.378906 34.332031 C 94.484375 34.109375 94.613281 33.777344 94.726562 33.519531 C 94.851562 33.25 94.933594 32.96875 94.972656 32.671875 L 94.941406 32.898438 C 94.941406 32.828125 94.988281 32.753906 95.007812 32.683594 C 95.023438 32.609375 95.007812 32.554688 95.007812 32.492188 C 95.003906 32.480469 95.003906 32.46875 95.007812 32.457031 C 95.054688 32.289062 95.046875 32.121094 94.984375 31.960938 C 94.921875 31.796875 94.816406 31.671875 94.667969 31.578125 Z M 94.667969 31.578125 " fill-opacity="1" fill-rule="nonzero"/><path fill="#595972" d="M 98.367188 29.90625 C 97.574219 30.839844 96.9375 31.863281 96.453125 32.984375 C 96.191406 33.539062 95.957031 34.09375 95.75 34.703125 C 95.445312 35.3125 95.308594 35.957031 95.339844 36.636719 C 95.375 36.757812 95.4375 36.867188 95.53125 36.957031 C 95.625 37.042969 95.730469 37.105469 95.855469 37.136719 C 95.980469 37.171875 96.105469 37.171875 96.230469 37.136719 C 96.351562 37.105469 96.460938 37.042969 96.550781 36.953125 C 96.890625 36.421875 97.125 35.847656 97.253906 35.230469 C 97.429688 34.726562 97.625 34.226562 97.847656 33.738281 C 98.308594 32.703125 98.882812 31.710938 99.410156 30.710938 C 99.75 30.074219 98.886719 29.3125 98.367188 29.90625 Z M 98.367188 29.90625 " fill-opacity="1" fill-rule="nonzero"/><path fill="#595972" d="M 102.464844 30.5625 C 102.277344 30.515625 102.101562 30.539062 101.9375 30.632812 C 101.769531 30.726562 101.660156 30.867188 101.609375 31.050781 L 100.855469 33.738281 C 100.742188 34.171875 100.628906 34.605469 100.519531 35.035156 C 100.296875 35.542969 100.210938 36.074219 100.257812 36.625 C 100.292969 36.742188 100.355469 36.84375 100.441406 36.929688 C 100.53125 37.015625 100.636719 37.078125 100.757812 37.109375 C 100.875 37.140625 100.996094 37.140625 101.117188 37.109375 C 101.234375 37.078125 101.339844 37.019531 101.429688 36.933594 C 101.742188 36.484375 101.925781 35.984375 101.984375 35.4375 C 102.097656 35.003906 102.214844 34.570312 102.320312 34.132812 C 102.535156 33.226562 102.75 32.320312 102.964844 31.417969 C 103.011719 31.230469 102.984375 31.054688 102.886719 30.886719 C 102.792969 30.722656 102.648438 30.613281 102.464844 30.5625 Z M 102.464844 30.5625 " fill-opacity="1" fill-rule="nonzero"/><path fill="#595972" d="M 105.117188 32.34375 C 105.003906 32.238281 104.871094 32.171875 104.71875 32.148438 C 104.546875 32.125 104.386719 32.160156 104.242188 32.257812 C 104.097656 32.351562 104 32.480469 103.953125 32.648438 C 103.894531 32.988281 103.820312 33.332031 103.769531 33.671875 C 103.691406 34.0625 103.640625 34.457031 103.625 34.859375 C 103.632812 35.03125 103.695312 35.183594 103.808594 35.3125 C 103.925781 35.4375 104.070312 35.515625 104.242188 35.539062 C 104.414062 35.5625 104.574219 35.527344 104.71875 35.433594 C 104.867188 35.339844 104.964844 35.210938 105.015625 35.046875 C 105.113281 34.660156 105.179688 34.265625 105.210938 33.863281 C 105.257812 33.527344 105.285156 33.175781 105.324219 32.832031 C 105.324219 32.640625 105.253906 32.476562 105.117188 32.34375 Z M 105.117188 32.34375 " fill-opacity="1" fill-rule="nonzero"/><path fill="#595972" d="M 111.46875 29.5 C 111.269531 29.449219 111.082031 29.472656 110.90625 29.574219 C 110.726562 29.675781 110.609375 29.820312 110.550781 30.019531 C 110.285156 31.117188 110.085938 32.226562 109.960938 33.347656 C 109.90625 33.871094 109.867188 34.394531 109.84375 34.914062 C 109.769531 35.515625 109.816406 36.113281 109.976562 36.695312 C 110.03125 36.863281 110.128906 37 110.273438 37.105469 C 110.414062 37.207031 110.574219 37.257812 110.75 37.257812 C 110.925781 37.257812 111.085938 37.207031 111.230469 37.105469 C 111.371094 37 111.46875 36.863281 111.523438 36.695312 C 111.648438 36.148438 111.691406 35.59375 111.648438 35.03125 C 111.648438 34.507812 111.648438 33.988281 111.691406 33.464844 C 111.753906 32.449219 111.832031 31.4375 111.992188 30.441406 C 112.046875 30.238281 112.023438 30.046875 111.921875 29.863281 C 111.820312 29.679688 111.667969 29.5625 111.46875 29.5 Z M 111.46875 29.5 " fill-opacity="1" fill-rule="nonzero"/><path fill="#595972" d="M 114.839844 32.105469 C 114.839844 31.9375 114.785156 31.789062 114.675781 31.664062 C 114.566406 31.535156 114.429688 31.460938 114.261719 31.4375 C 114.09375 31.414062 113.941406 31.449219 113.800781 31.542969 C 113.660156 31.636719 113.570312 31.765625 113.527344 31.925781 C 113.375 32.574219 113.257812 33.226562 113.175781 33.886719 C 113.027344 34.589844 112.96875 35.296875 113.003906 36.015625 C 113.007812 36.191406 113.070312 36.347656 113.191406 36.480469 C 113.308594 36.617188 113.457031 36.695312 113.632812 36.722656 C 113.808594 36.746094 113.972656 36.707031 114.121094 36.609375 C 114.273438 36.511719 114.371094 36.378906 114.421875 36.207031 C 114.621094 35.519531 114.730469 34.816406 114.746094 34.097656 C 114.8125 33.4375 114.84375 32.769531 114.839844 32.105469 Z M 114.839844 32.105469 " fill-opacity="1" fill-rule="nonzero"/><path fill="#595972" d="M 118.621094 32.6875 C 118.621094 32.503906 118.554688 32.351562 118.425781 32.222656 C 118.296875 32.09375 118.140625 32.027344 117.960938 32.027344 C 117.777344 32.027344 117.621094 32.09375 117.492188 32.222656 C 117.363281 32.351562 117.296875 32.503906 117.296875 32.6875 C 117.324219 33.652344 117.296875 34.625 117.417969 35.585938 C 117.425781 35.765625 117.492188 35.925781 117.613281 36.058594 C 117.824219 36.246094 118.058594 36.285156 118.320312 36.175781 C 118.582031 36.066406 118.714844 35.867188 118.726562 35.585938 C 118.777344 34.621094 118.699219 33.652344 118.621094 32.6875 Z M 118.621094 32.6875 " fill-opacity="1" fill-rule="nonzero"/><path fill="#595972" d="M 122.414062 29.933594 C 122.414062 29.738281 122.34375 29.570312 122.207031 29.433594 C 122.066406 29.292969 121.898438 29.222656 121.703125 29.222656 C 121.503906 29.222656 121.335938 29.292969 121.199219 29.433594 C 121.058594 29.570312 120.988281 29.738281 120.988281 29.933594 C 120.921875 31.167969 120.835938 32.394531 120.785156 33.625 C 120.757812 34.242188 120.734375 34.859375 120.707031 35.46875 C 120.613281 36.105469 120.640625 36.742188 120.785156 37.367188 C 120.832031 37.523438 120.921875 37.648438 121.050781 37.742188 C 121.183594 37.839844 121.328125 37.886719 121.492188 37.886719 C 121.652344 37.886719 121.796875 37.839844 121.929688 37.742188 C 122.058594 37.648438 122.148438 37.523438 122.195312 37.367188 C 122.375 36.746094 122.433594 36.113281 122.375 35.46875 L 122.410156 33.625 C 122.425781 32.394531 122.414062 31.167969 122.414062 29.933594 Z M 122.414062 29.933594 " fill-opacity="1" fill-rule="nonzero"/><path fill="#595972" d="M 125.761719 34.609375 C 125.730469 33.921875 125.691406 33.226562 125.601562 32.542969 C 125.601562 32.359375 125.535156 32.203125 125.40625 32.074219 C 125.273438 31.941406 125.117188 31.878906 124.933594 31.878906 C 124.75 31.878906 124.589844 31.941406 124.460938 32.074219 C 124.332031 32.203125 124.265625 32.359375 124.265625 32.542969 C 124.199219 33.230469 124.1875 33.921875 124.175781 34.609375 C 124.175781 34.953125 124.175781 35.296875 124.175781 35.640625 C 124.167969 36.03125 124.222656 36.414062 124.339844 36.785156 C 124.382812 36.933594 124.464844 37.054688 124.589844 37.148438 C 124.710938 37.242188 124.851562 37.289062 125.003906 37.289062 C 125.160156 37.285156 125.300781 37.238281 125.421875 37.144531 C 125.546875 37.054688 125.632812 36.933594 125.679688 36.785156 C 125.710938 36.65625 125.734375 36.527344 125.746094 36.398438 C 125.746094 36.347656 125.746094 36.347656 125.746094 36.398438 C 125.746094 36.300781 125.777344 36.207031 125.789062 36.109375 C 125.800781 36.007812 125.789062 35.792969 125.789062 35.628906 C 125.800781 35.296875 125.777344 34.96875 125.761719 34.609375 Z M 125.761719 34.609375 " fill-opacity="1" fill-rule="nonzero"/><path fill="#595972" d="M 132.351562 34.679688 C 132.234375 34.203125 132.109375 33.726562 131.980469 33.25 C 131.765625 32.242188 131.472656 31.261719 131.105469 30.300781 C 130.835938 29.683594 129.789062 29.996094 129.832031 30.644531 C 129.964844 31.667969 130.171875 32.679688 130.457031 33.671875 C 130.566406 34.148438 130.679688 34.632812 130.796875 35.109375 C 130.867188 35.675781 131.0625 36.199219 131.386719 36.675781 C 131.582031 36.875 131.8125 36.941406 132.085938 36.871094 C 132.359375 36.800781 132.53125 36.628906 132.601562 36.359375 C 132.648438 35.78125 132.566406 35.222656 132.351562 34.679688 Z M 132.351562 34.679688 " fill-opacity="1" fill-rule="nonzero"/><path fill="#595972" d="M 135.855469 33.859375 C 135.777344 33.527344 135.691406 33.1875 135.601562 32.855469 C 135.4375 32.140625 135.21875 31.445312 134.945312 30.765625 C 134.867188 30.628906 134.753906 30.527344 134.605469 30.464844 C 134.460938 30.40625 134.308594 30.394531 134.15625 30.4375 C 134 30.480469 133.875 30.5625 133.78125 30.691406 C 133.683594 30.820312 133.640625 30.964844 133.644531 31.121094 C 133.699219 31.855469 133.820312 32.578125 134 33.292969 L 134.214844 34.308594 C 134.320312 34.757812 134.367188 35.332031 134.828125 35.5625 C 135.015625 35.664062 135.214844 35.6875 135.421875 35.632812 C 135.628906 35.582031 135.792969 35.460938 135.90625 35.28125 C 136.207031 34.863281 135.941406 34.28125 135.855469 33.859375 Z M 135.855469 33.859375 " fill-opacity="1" fill-rule="nonzero"/><path fill="#595972" d="M 139.964844 33.976562 C 139.921875 33.820312 139.847656 33.675781 139.792969 33.53125 C 139.65625 33.195312 139.511719 32.855469 139.367188 32.523438 C 139.109375 31.925781 138.847656 31.34375 138.546875 30.765625 C 138.460938 30.628906 138.335938 30.535156 138.179688 30.484375 C 138.023438 30.433594 137.867188 30.441406 137.714844 30.507812 C 137.566406 30.570312 137.453125 30.675781 137.378906 30.824219 C 137.304688 30.96875 137.285156 31.125 137.324219 31.285156 C 137.503906 31.898438 137.707031 32.492188 137.929688 33.089844 C 138.042969 33.386719 138.152344 33.6875 138.277344 33.980469 C 138.347656 34.1875 138.429688 34.386719 138.527344 34.582031 C 138.621094 34.765625 138.761719 34.894531 138.953125 34.96875 C 139.148438 35.039062 139.339844 35.039062 139.53125 34.964844 C 139.71875 34.878906 139.855469 34.742188 139.9375 34.554688 C 140.019531 34.363281 140.03125 34.171875 139.964844 33.976562 Z M 139.964844 33.976562 " fill-opacity="1" fill-rule="nonzero"/><path fill="#595972" d="M 143.585938 33.910156 C 143.441406 33.664062 143.296875 33.421875 143.160156 33.175781 C 142.886719 32.699219 142.628906 32.210938 142.367188 31.726562 C 141.847656 30.75 141.351562 29.746094 140.917969 28.722656 C 140.832031 28.578125 140.710938 28.480469 140.550781 28.425781 C 140.390625 28.375 140.234375 28.378906 140.078125 28.445312 C 139.921875 28.511719 139.808594 28.621094 139.734375 28.769531 C 139.660156 28.921875 139.640625 29.078125 139.683594 29.242188 C 140.042969 30.378906 140.472656 31.488281 140.972656 32.570312 C 141.210938 33.082031 141.484375 33.582031 141.769531 34.078125 C 142.050781 34.570312 142.398438 35.371094 143.023438 35.597656 C 143.136719 35.625 143.246094 35.628906 143.355469 35.605469 C 143.46875 35.582031 143.570312 35.539062 143.660156 35.46875 C 143.75 35.398438 143.820312 35.316406 143.875 35.214844 C 143.925781 35.113281 143.953125 35.003906 143.953125 34.890625 C 143.945312 34.523438 143.824219 34.195312 143.585938 33.910156 Z M 143.585938 33.910156 " fill-opacity="1" fill-rule="nonzero"/><path fill="#595972" d="M 146.507812 32.011719 C 146.507812 32.054688 146.566406 32.148438 146.507812 32.050781 C 146.445312 31.949219 146.429688 31.871094 146.390625 31.789062 C 146.3125 31.648438 146.226562 31.511719 146.128906 31.382812 C 145.902344 31.066406 145.679688 30.75 145.433594 30.449219 C 145.1875 30.152344 145.039062 29.953125 144.816406 29.71875 C 144.761719 29.664062 144.714844 29.597656 144.664062 29.535156 L 144.589844 29.445312 C 144.558594 29.414062 144.527344 29.382812 144.488281 29.363281 C 144.398438 29.296875 144.382812 29.28125 144.445312 29.324219 C 144.503906 29.367188 144.488281 29.351562 144.445312 29.324219 L 144.40625 29.28125 L 144.320312 29.195312 L 144.144531 28.996094 C 144.023438 28.871094 143.875 28.800781 143.699219 28.785156 C 143.527344 28.773438 143.371094 28.820312 143.230469 28.925781 C 143.09375 29.03125 143.007812 29.171875 142.976562 29.34375 C 142.941406 29.515625 142.972656 29.675781 143.0625 29.824219 C 143.144531 29.960938 143.21875 30.105469 143.285156 30.25 C 143.199219 30.023438 143.359375 30.40625 143.390625 30.46875 L 143.503906 30.632812 C 143.46875 30.539062 143.503906 30.585938 143.570312 30.785156 L 143.632812 30.882812 C 143.671875 30.957031 143.714844 31.023438 143.753906 31.089844 L 144.003906 31.5 C 144.175781 31.777344 144.367188 32.054688 144.558594 32.300781 C 144.679688 32.480469 144.816406 32.652344 144.960938 32.816406 L 145.039062 32.90625 L 145.132812 32.976562 L 145.222656 33.054688 C 145.28125 33.121094 145.351562 33.167969 145.433594 33.203125 C 145.699219 33.351562 145.964844 33.351562 146.230469 33.203125 C 146.492188 33.054688 146.625 32.832031 146.617188 32.527344 C 146.613281 32.347656 146.578125 32.175781 146.507812 32.011719 Z M 146.507812 32.011719 " fill-opacity="1" fill-rule="nonzero"/><path fill="#595972" d="M 143.535156 30.632812 C 143.539062 30.648438 143.539062 30.660156 143.535156 30.671875 C 143.535156 30.671875 143.546875 30.65625 143.535156 30.632812 Z M 143.535156 30.632812 " fill-opacity="1" fill-rule="nonzero"/><g clip-path="url(#7bac809904)"><path fill="#c6c6c6" d="M 275.625 89.820312 L 275.625 91.488281 L 191.3125 91.488281 L 191.3125 89.820312 C 191.3125 89.503906 191.339844 89.1875 191.402344 88.875 C 191.464844 88.5625 191.558594 88.257812 191.679688 87.960938 C 191.800781 87.667969 191.953125 87.386719 192.128906 87.121094 C 192.304688 86.855469 192.507812 86.613281 192.734375 86.386719 C 192.957031 86.160156 193.203125 85.960938 193.46875 85.78125 C 193.734375 85.605469 194.015625 85.457031 194.3125 85.332031 C 194.605469 85.210938 194.910156 85.117188 195.222656 85.054688 C 195.535156 84.996094 195.851562 84.964844 196.171875 84.964844 L 270.757812 84.964844 C 271.078125 84.964844 271.394531 84.996094 271.707031 85.054688 C 272.023438 85.117188 272.324219 85.210938 272.621094 85.332031 C 272.917969 85.453125 273.195312 85.605469 273.460938 85.78125 C 273.726562 85.960938 273.972656 86.160156 274.199219 86.386719 C 274.425781 86.613281 274.628906 86.855469 274.804688 87.121094 C 274.984375 87.386719 275.132812 87.667969 275.253906 87.960938 C 275.378906 88.257812 275.46875 88.558594 275.53125 88.875 C 275.59375 89.1875 275.625 89.503906 275.625 89.820312 Z M 275.625 89.820312 " fill-opacity="1" fill-rule="nonzero"/></g><g clip-path="url(#fa37c0608f)"><path fill="#57477c" d="M 275.625 91.480469 L 275.625 152.109375 C 275.625 153.875 273.449219 155.304688 270.757812 155.304688 L 196.171875 155.304688 C 193.484375 155.304688 191.3125 153.875 191.3125 152.109375 L 191.3125 91.480469 Z M 275.625 91.480469 " fill-opacity="1" fill-rule="nonzero"/></g><path fill="#fcd552" d="M 229.140625 104.539062 L 205.152344 104.539062 C 203.925781 104.539062 202.929688 103.949219 202.929688 103.222656 L 202.929688 101.230469 C 202.929688 100.503906 203.925781 99.914062 205.152344 99.914062 L 229.140625 99.914062 C 230.371094 99.914062 231.367188 100.503906 231.367188 101.230469 L 231.367188 103.222656 C 231.367188 103.949219 230.371094 104.539062 229.140625 104.539062 Z M 229.140625 104.539062 " fill-opacity="1" fill-rule="nonzero"/><path fill="#fcd552" d="M 229.140625 147.335938 L 205.152344 147.335938 C 203.925781 147.335938 202.929688 146.75 202.929688 146.019531 L 202.929688 144.027344 C 202.929688 143.300781 203.925781 142.710938 205.152344 142.710938 L 229.140625 142.710938 C 230.371094 142.710938 231.367188 143.300781 231.367188 144.027344 L 231.367188 146.003906 C 231.367188 146.75 230.371094 147.335938 229.140625 147.335938 Z M 229.140625 147.335938 " fill-opacity="1" fill-rule="nonzero"/><path fill="#50d5de" d="M 261.789062 118.144531 L 205.152344 118.144531 C 203.925781 118.144531 202.929688 117.558594 202.929688 116.835938 L 202.929688 114.835938 C 202.929688 114.117188 203.925781 113.527344 205.152344 113.527344 L 261.789062 113.527344 C 263.015625 113.527344 264.011719 114.117188 264.011719 114.835938 L 264.011719 116.835938 C 264.011719 117.558594 263.015625 118.144531 261.789062 118.144531 Z M 261.789062 118.144531 " fill-opacity="1" fill-rule="nonzero"/><path fill="#c1c91b" d="M 220.871094 111.210938 L 205.152344 111.210938 C 203.925781 111.210938 202.929688 110.628906 202.929688 109.902344 L 202.929688 107.902344 C 202.929688 107.179688 203.925781 106.59375 205.152344 106.59375 L 220.871094 106.59375 C 222.101562 106.59375 223.097656 107.179688 223.097656 107.902344 L 223.097656 109.917969 C 223.097656 110.628906 222.101562 111.210938 220.871094 111.210938 Z M 220.871094 111.210938 " fill-opacity="1" fill-rule="nonzero"/><path fill="#c1c91b" d="M 253.078125 111.210938 L 227.789062 111.210938 C 226.5625 111.210938 225.566406 110.628906 225.566406 109.902344 L 225.566406 107.902344 C 225.566406 107.179688 226.5625 106.59375 227.789062 106.59375 L 253.078125 106.59375 C 254.308594 106.59375 255.304688 107.179688 255.304688 107.902344 L 255.304688 109.917969 C 255.304688 110.628906 254.308594 111.210938 253.078125 111.210938 Z M 253.078125 111.210938 " fill-opacity="1" fill-rule="nonzero"/><path fill="#ef78cd" d="M 205.152344 120.371094 L 220.871094 120.371094 C 221.167969 120.371094 221.449219 120.429688 221.722656 120.542969 C 221.996094 120.652344 222.234375 120.8125 222.445312 121.023438 C 222.652344 121.230469 222.8125 121.472656 222.925781 121.742188 C 223.039062 122.015625 223.097656 122.296875 223.097656 122.59375 L 223.097656 122.777344 C 223.097656 123.070312 223.039062 123.355469 222.925781 123.625 C 222.8125 123.898438 222.652344 124.136719 222.445312 124.347656 C 222.234375 124.554688 221.996094 124.714844 221.722656 124.828125 C 221.449219 124.941406 221.167969 124.996094 220.871094 124.996094 L 205.152344 124.996094 C 204.859375 124.996094 204.574219 124.941406 204.300781 124.828125 C 204.03125 124.714844 203.789062 124.554688 203.582031 124.347656 C 203.371094 124.136719 203.210938 123.898438 203.097656 123.625 C 202.984375 123.355469 202.929688 123.070312 202.929688 122.777344 L 202.929688 122.59375 C 202.929688 122.296875 202.984375 122.015625 203.097656 121.742188 C 203.210938 121.472656 203.371094 121.230469 203.582031 121.023438 C 203.789062 120.8125 204.03125 120.652344 204.300781 120.542969 C 204.574219 120.429688 204.859375 120.371094 205.152344 120.371094 Z M 205.152344 120.371094 " fill-opacity="1" fill-rule="nonzero"/><path fill="#c1c91b" d="M 253.078125 124.996094 L 227.789062 124.996094 C 226.5625 124.996094 225.566406 124.40625 225.566406 123.679688 L 225.566406 121.6875 C 225.566406 120.960938 226.5625 120.371094 227.789062 120.371094 L 253.078125 120.371094 C 254.308594 120.371094 255.304688 120.960938 255.304688 121.6875 L 255.304688 123.679688 C 255.304688 124.40625 254.308594 124.996094 253.078125 124.996094 Z M 253.078125 124.996094 " fill-opacity="1" fill-rule="nonzero"/><path fill="#ef78cd" d="M 205.152344 128.078125 L 220.871094 128.078125 C 221.167969 128.078125 221.449219 128.132812 221.722656 128.246094 C 221.996094 128.359375 222.234375 128.519531 222.445312 128.726562 C 222.652344 128.9375 222.8125 129.175781 222.925781 129.449219 C 223.039062 129.722656 223.097656 130.003906 223.097656 130.296875 L 223.097656 130.480469 C 223.097656 130.777344 223.039062 131.058594 222.925781 131.332031 C 222.8125 131.605469 222.652344 131.84375 222.445312 132.050781 C 222.234375 132.261719 221.996094 132.421875 221.722656 132.535156 C 221.449219 132.644531 221.167969 132.703125 220.871094 132.703125 L 205.152344 132.703125 C 204.859375 132.703125 204.574219 132.644531 204.300781 132.535156 C 204.03125 132.421875 203.789062 132.261719 203.582031 132.050781 C 203.371094 131.84375 203.210938 131.605469 203.097656 131.332031 C 202.984375 131.058594 202.929688 130.777344 202.929688 130.480469 L 202.929688 130.296875 C 202.929688 130.003906 202.984375 129.722656 203.097656 129.449219 C 203.210938 129.175781 203.371094 128.9375 203.582031 128.726562 C 203.789062 128.519531 204.03125 128.359375 204.300781 128.246094 C 204.574219 128.132812 204.859375 128.078125 205.152344 128.078125 Z M 205.152344 128.078125 " fill-opacity="1" fill-rule="nonzero"/><path fill="#c1c91b" d="M 259.320312 132.679688 L 227.789062 132.679688 C 226.5625 132.679688 225.566406 132.089844 225.566406 131.371094 L 225.566406 129.371094 C 225.566406 128.648438 226.5625 128.0625 227.789062 128.0625 L 259.320312 128.0625 C 260.546875 128.0625 261.542969 128.648438 261.542969 129.371094 L 261.542969 131.371094 C 261.542969 132.125 260.546875 132.679688 259.320312 132.679688 Z M 259.320312 132.679688 " fill-opacity="1" fill-rule="nonzero"/><path fill="#ef78cd" d="M 205.152344 135.652344 L 220.871094 135.652344 C 221.167969 135.652344 221.449219 135.707031 221.722656 135.820312 C 221.996094 135.933594 222.234375 136.09375 222.445312 136.300781 C 222.652344 136.507812 222.8125 136.75 222.925781 137.019531 C 223.039062 137.292969 223.097656 137.578125 223.097656 137.871094 L 223.097656 138.054688 C 223.097656 138.347656 223.039062 138.632812 222.925781 138.902344 C 222.8125 139.175781 222.652344 139.417969 222.445312 139.625 C 222.234375 139.832031 221.996094 139.992188 221.722656 140.105469 C 221.449219 140.21875 221.167969 140.273438 220.871094 140.273438 L 205.152344 140.273438 C 204.859375 140.273438 204.574219 140.21875 204.300781 140.105469 C 204.03125 139.992188 203.789062 139.832031 203.582031 139.625 C 203.371094 139.417969 203.210938 139.175781 203.097656 138.902344 C 202.984375 138.632812 202.929688 138.347656 202.929688 138.054688 L 202.929688 137.871094 C 202.929688 137.578125 202.984375 137.292969 203.097656 137.019531 C 203.210938 136.75 203.371094 136.507812 203.582031 136.300781 C 203.789062 136.09375 204.03125 135.933594 204.300781 135.820312 C 204.574219 135.707031 204.859375 135.652344 205.152344 135.652344 Z M 205.152344 135.652344 " fill-opacity="1" fill-rule="nonzero"/><path fill="#c1c91b" d="M 253.078125 140.273438 L 227.789062 140.273438 C 226.5625 140.273438 225.566406 139.6875 225.566406 138.960938 L 225.566406 136.964844 C 225.566406 136.238281 226.5625 135.652344 227.789062 135.652344 L 253.078125 135.652344 C 254.308594 135.652344 255.304688 136.238281 255.304688 136.964844 L 255.304688 138.960938 C 255.304688 139.6875 254.308594 140.273438 253.078125 140.273438 Z M 253.078125 140.273438 " fill-opacity="1" fill-rule="nonzero"/><path fill="#fcd552" d="M 60.714844 68.953125 C 60.714844 69.496094 60.6875 70.039062 60.632812 70.578125 C 60.578125 71.117188 60.5 71.65625 60.394531 72.1875 C 60.289062 72.722656 60.15625 73.246094 59.996094 73.765625 C 59.839844 74.289062 59.65625 74.796875 59.449219 75.300781 C 59.238281 75.800781 59.007812 76.292969 58.75 76.773438 C 58.496094 77.25 58.214844 77.714844 57.914062 78.167969 C 57.609375 78.621094 57.285156 79.054688 56.941406 79.476562 C 56.597656 79.894531 56.230469 80.296875 55.847656 80.683594 C 55.460938 81.066406 55.058594 81.429688 54.636719 81.773438 C 54.21875 82.121094 53.78125 82.441406 53.328125 82.746094 C 52.875 83.046875 52.410156 83.324219 51.929688 83.582031 C 51.449219 83.839844 50.957031 84.070312 50.453125 84.277344 C 49.953125 84.484375 49.441406 84.667969 48.917969 84.828125 C 48.398438 84.984375 47.871094 85.117188 47.335938 85.222656 C 46.804688 85.328125 46.265625 85.40625 45.722656 85.460938 C 45.183594 85.515625 44.640625 85.539062 44.09375 85.539062 C 43.550781 85.539062 43.007812 85.515625 42.464844 85.460938 C 41.925781 85.40625 41.386719 85.328125 40.851562 85.222656 C 40.320312 85.117188 39.792969 84.984375 39.269531 84.828125 C 38.75 84.667969 38.238281 84.484375 37.734375 84.277344 C 37.234375 84.070312 36.742188 83.839844 36.261719 83.582031 C 35.78125 83.324219 35.316406 83.046875 34.863281 82.746094 C 34.410156 82.441406 33.972656 82.121094 33.554688 81.773438 C 33.132812 81.429688 32.730469 81.066406 32.34375 80.683594 C 31.960938 80.296875 31.59375 79.894531 31.25 79.476562 C 30.902344 79.054688 30.582031 78.621094 30.277344 78.167969 C 29.976562 77.714844 29.695312 77.25 29.4375 76.773438 C 29.183594 76.292969 28.949219 75.800781 28.742188 75.300781 C 28.535156 74.796875 28.351562 74.289062 28.191406 73.765625 C 28.035156 73.246094 27.902344 72.722656 27.796875 72.1875 C 27.691406 71.65625 27.609375 71.117188 27.558594 70.578125 C 27.503906 70.039062 27.476562 69.496094 27.476562 68.953125 C 27.476562 68.410156 27.503906 67.867188 27.558594 67.324219 C 27.609375 66.785156 27.691406 66.25 27.796875 65.714844 C 27.902344 65.183594 28.035156 64.65625 28.191406 64.136719 C 28.351562 63.617188 28.535156 63.105469 28.742188 62.605469 C 28.949219 62.101562 29.183594 61.613281 29.4375 61.132812 C 29.695312 60.652344 29.976562 60.1875 30.277344 59.734375 C 30.582031 59.285156 30.902344 58.847656 31.25 58.429688 C 31.59375 58.007812 31.960938 57.605469 32.34375 57.222656 C 32.730469 56.839844 33.132812 56.472656 33.554688 56.128906 C 33.972656 55.785156 34.410156 55.460938 34.863281 55.160156 C 35.316406 54.855469 35.78125 54.578125 36.261719 54.324219 C 36.742188 54.066406 37.234375 53.835938 37.734375 53.625 C 38.238281 53.417969 38.75 53.234375 39.269531 53.078125 C 39.792969 52.921875 40.320312 52.789062 40.851562 52.683594 C 41.386719 52.578125 41.925781 52.496094 42.464844 52.445312 C 43.007812 52.390625 43.550781 52.363281 44.09375 52.363281 C 44.640625 52.363281 45.183594 52.390625 45.722656 52.445312 C 46.265625 52.496094 46.804688 52.578125 47.335938 52.683594 C 47.871094 52.789062 48.398438 52.921875 48.917969 53.078125 C 49.441406 53.234375 49.953125 53.417969 50.453125 53.625 C 50.957031 53.835938 51.449219 54.066406 51.929688 54.324219 C 52.410156 54.578125 52.875 54.855469 53.328125 55.160156 C 53.78125 55.460938 54.21875 55.785156 54.636719 56.128906 C 55.058594 56.472656 55.460938 56.839844 55.847656 57.222656 C 56.230469 57.605469 56.597656 58.007812 56.941406 58.429688 C 57.285156 58.847656 57.609375 59.285156 57.914062 59.734375 C 58.214844 60.1875 58.496094 60.652344 58.75 61.132812 C 59.007812 61.613281 59.238281 62.101562 59.449219 62.605469 C 59.65625 63.105469 59.839844 63.617188 59.996094 64.136719 C 60.15625 64.65625 60.289062 65.183594 60.394531 65.714844 C 60.5 66.25 60.578125 66.785156 60.632812 67.324219 C 60.6875 67.867188 60.714844 68.410156 60.714844 68.953125 Z M 60.714844 68.953125 " fill-opacity="1" fill-rule="nonzero"/><path fill="#6e40a3" d="M 33.277344 70.316406 L 33.089844 70.117188 C 33.019531 70.046875 32.957031 69.96875 32.898438 69.890625 C 32.84375 69.808594 32.800781 69.726562 32.765625 69.636719 C 32.652344 69.351562 32.691406 69.09375 32.882812 68.859375 C 33.011719 68.691406 33.148438 68.535156 33.300781 68.390625 L 36.265625 65.449219 C 36.40625 65.308594 36.554688 65.179688 36.714844 65.058594 C 36.863281 64.941406 37.035156 64.882812 37.226562 64.882812 C 37.367188 64.882812 37.496094 64.917969 37.617188 64.988281 C 37.773438 65.074219 37.914062 65.183594 38.039062 65.316406 C 38.164062 65.429688 38.269531 65.566406 38.351562 65.714844 C 38.40625 65.835938 38.4375 65.960938 38.4375 66.09375 C 38.4375 66.285156 38.382812 66.457031 38.273438 66.613281 C 38.160156 66.777344 38.03125 66.929688 37.886719 67.070312 L 35.5625 69.390625 L 37.871094 71.613281 C 38.015625 71.753906 38.144531 71.910156 38.265625 72.070312 C 38.382812 72.21875 38.441406 72.390625 38.4375 72.578125 C 38.4375 72.710938 38.40625 72.839844 38.34375 72.960938 C 38.257812 73.128906 38.144531 73.277344 38.003906 73.40625 C 37.890625 73.53125 37.757812 73.632812 37.605469 73.710938 C 37.484375 73.769531 37.359375 73.796875 37.226562 73.796875 C 37.039062 73.796875 36.867188 73.742188 36.714844 73.632812 C 36.546875 73.515625 36.390625 73.382812 36.246094 73.238281 Z M 33.277344 70.316406 " fill-opacity="1" fill-rule="nonzero"/><path fill="#6e40a3" d="M 42.972656 74.316406 C 42.921875 74.421875 42.867188 74.53125 42.808594 74.636719 C 42.75 74.746094 42.675781 74.847656 42.59375 74.941406 C 42.507812 75.03125 42.40625 75.109375 42.300781 75.171875 C 42.179688 75.230469 42.050781 75.257812 41.914062 75.257812 C 41.730469 75.253906 41.554688 75.207031 41.386719 75.125 C 41.171875 75.046875 40.984375 74.917969 40.832031 74.75 C 40.71875 74.625 40.652344 74.480469 40.628906 74.316406 C 40.628906 74.15625 40.648438 73.996094 40.691406 73.84375 C 40.730469 73.710938 40.78125 73.570312 40.835938 73.425781 L 45.445312 62.65625 L 45.589844 62.34375 C 45.640625 62.242188 45.699219 62.148438 45.769531 62.058594 C 45.839844 61.972656 45.917969 61.902344 46.007812 61.839844 C 46.109375 61.777344 46.21875 61.742188 46.335938 61.734375 C 46.457031 61.730469 46.578125 61.742188 46.699219 61.761719 C 46.820312 61.78125 46.941406 61.816406 47.054688 61.867188 C 47.269531 61.941406 47.457031 62.0625 47.609375 62.230469 C 47.71875 62.351562 47.78125 62.496094 47.800781 62.65625 C 47.804688 62.824219 47.785156 62.992188 47.738281 63.15625 C 47.699219 63.296875 47.652344 63.429688 47.59375 63.5625 Z M 42.972656 74.316406 " fill-opacity="1" fill-rule="nonzero"/><path fill="#6e40a3" d="M 52.25 73.277344 C 52.105469 73.421875 51.949219 73.554688 51.78125 73.671875 C 51.628906 73.78125 51.457031 73.835938 51.269531 73.835938 C 51.136719 73.835938 51.015625 73.808594 50.898438 73.75 C 50.742188 73.671875 50.609375 73.570312 50.492188 73.445312 C 50.355469 73.3125 50.242188 73.164062 50.152344 73 C 50.089844 72.878906 50.058594 72.75 50.058594 72.617188 C 50.058594 72.429688 50.117188 72.261719 50.230469 72.109375 C 50.351562 71.949219 50.480469 71.792969 50.625 71.648438 L 52.933594 69.390625 L 50.609375 67.085938 C 50.464844 66.945312 50.339844 66.792969 50.222656 66.632812 C 50.113281 66.476562 50.058594 66.300781 50.058594 66.109375 C 50.058594 65.976562 50.089844 65.851562 50.144531 65.730469 C 50.230469 65.582031 50.332031 65.449219 50.457031 65.332031 C 50.582031 65.199219 50.722656 65.089844 50.878906 65.003906 C 51 64.9375 51.132812 64.902344 51.269531 64.898438 C 51.460938 64.898438 51.632812 64.957031 51.78125 65.078125 C 51.941406 65.195312 52.089844 65.324219 52.230469 65.464844 L 55.195312 68.40625 C 55.347656 68.554688 55.484375 68.707031 55.613281 68.875 C 55.730469 69.019531 55.789062 69.183594 55.785156 69.367188 C 55.789062 69.464844 55.769531 69.5625 55.730469 69.652344 C 55.695312 69.742188 55.652344 69.828125 55.597656 69.90625 C 55.542969 69.988281 55.480469 70.0625 55.414062 70.132812 L 55.21875 70.335938 Z M 52.25 73.277344 " fill-opacity="1" fill-rule="nonzero"/><path fill="#6e40a3" d="M 33.8125 81.761719 L 54.390625 81.761719 L 54.390625 89.070312 C 54.390625 89.746094 54.324219 90.414062 54.191406 91.074219 C 54.058594 91.734375 53.867188 92.378906 53.605469 93 C 53.347656 93.621094 53.03125 94.214844 52.65625 94.773438 C 52.28125 95.335938 51.855469 95.851562 51.378906 96.328125 C 50.902344 96.804688 50.382812 97.230469 49.820312 97.605469 C 49.257812 97.980469 48.664062 98.296875 48.042969 98.554688 C 47.417969 98.8125 46.773438 99.007812 46.113281 99.140625 C 45.449219 99.269531 44.78125 99.335938 44.105469 99.335938 C 43.429688 99.335938 42.761719 99.269531 42.101562 99.140625 C 41.4375 99.007812 40.792969 98.8125 40.171875 98.554688 C 39.546875 98.296875 38.953125 97.980469 38.394531 97.605469 C 37.832031 97.230469 37.3125 96.804688 36.835938 96.328125 C 36.359375 95.851562 35.929688 95.335938 35.554688 94.773438 C 35.179688 94.214844 34.863281 93.621094 34.605469 93 C 34.347656 92.378906 34.152344 91.734375 34.019531 91.074219 C 33.890625 90.414062 33.824219 89.746094 33.824219 89.070312 L 33.824219 81.761719 Z M 33.8125 81.761719 " fill-opacity="1" fill-rule="nonzero"/><path fill="#6e40a3" d="M 42.460938 98.476562 L 45.730469 98.476562 L 45.730469 100.730469 L 42.460938 100.730469 Z M 42.460938 98.476562 " fill-opacity="1" fill-rule="nonzero"/><path fill="#c6c6c6" d="M 51.363281 84.476562 C 46.621094 84.476562 41.535156 83.957031 36.835938 84.628906 C 36.683594 84.679688 36.558594 84.765625 36.460938 84.898438 C 36.367188 85.027344 36.316406 85.171875 36.316406 85.335938 C 36.316406 85.496094 36.367188 85.644531 36.460938 85.773438 C 36.558594 85.902344 36.683594 85.992188 36.835938 86.039062 C 41.535156 86.710938 46.621094 86.210938 51.363281 86.195312 C 51.601562 86.195312 51.804688 86.109375 51.972656 85.941406 C 52.140625 85.773438 52.222656 85.574219 52.222656 85.335938 C 52.222656 85.097656 52.140625 84.894531 51.972656 84.726562 C 51.804688 84.558594 51.601562 84.476562 51.363281 84.476562 Z M 51.363281 84.476562 " fill-opacity="1" fill-rule="nonzero"/><path fill="#c6c6c6" d="M 49.703125 89.375 C 47.945312 89.375 46.03125 89.1875 44.304688 89.554688 C 44.144531 89.605469 44.011719 89.695312 43.910156 89.832031 C 43.808594 89.96875 43.757812 90.121094 43.757812 90.292969 C 43.757812 90.460938 43.808594 90.617188 43.910156 90.753906 C 44.011719 90.890625 44.144531 90.980469 44.304688 91.03125 C 46.03125 91.402344 47.945312 91.214844 49.703125 91.214844 C 49.941406 91.195312 50.144531 91.097656 50.308594 90.921875 C 50.472656 90.746094 50.554688 90.535156 50.554688 90.296875 C 50.554688 90.054688 50.472656 89.847656 50.308594 89.667969 C 50.144531 89.492188 49.941406 89.394531 49.703125 89.375 Z M 49.703125 89.375 " fill-opacity="1" fill-rule="nonzero"/><path fill="#c6c6c6" d="M 47.414062 94.230469 C 46.855469 94.230469 46.300781 94.273438 45.746094 94.355469 C 45.585938 94.402344 45.457031 94.496094 45.355469 94.628906 C 45.253906 94.761719 45.203125 94.914062 45.203125 95.082031 C 45.203125 95.25 45.253906 95.398438 45.355469 95.535156 C 45.457031 95.667969 45.585938 95.757812 45.746094 95.804688 C 46.300781 95.886719 46.855469 95.925781 47.414062 95.933594 C 47.535156 95.941406 47.652344 95.929688 47.765625 95.890625 C 47.875 95.851562 47.976562 95.789062 48.066406 95.710938 C 48.152344 95.628906 48.222656 95.535156 48.269531 95.425781 C 48.316406 95.316406 48.339844 95.199219 48.339844 95.082031 C 48.339844 94.960938 48.316406 94.847656 48.269531 94.738281 C 48.222656 94.628906 48.152344 94.535156 48.066406 94.453125 C 47.976562 94.371094 47.875 94.3125 47.765625 94.273438 C 47.652344 94.234375 47.535156 94.21875 47.414062 94.230469 Z M 47.414062 94.230469 " fill-opacity="1" fill-rule="nonzero"/></svg>