<svg xmlns="http://www.w3.org/2000/svg" xmlns:xlink="http://www.w3.org/1999/xlink" width="384" zoomAndPan="magnify" viewBox="0 0 288 287.999989" height="384" preserveAspectRatio="xMidYMid meet" version="1.0"><defs><clipPath id="7df13e4121"><path d="M 22.480469 127 L 48 127 L 48 213 L 22.480469 213 Z M 22.480469 127 " clip-rule="nonzero"/></clipPath><clipPath id="413c8d7f2b"><path d="M 80 235 L 135 235 L 135 256.144531 L 80 256.144531 Z M 80 235 " clip-rule="nonzero"/></clipPath><clipPath id="801cfd0a67"><path d="M 47 31.894531 L 122 31.894531 L 122 48 L 47 48 Z M 47 31.894531 " clip-rule="nonzero"/></clipPath><clipPath id="199c5747a9"><path d="M 228 116 L 265.480469 116 L 265.480469 153 L 228 153 Z M 228 116 " clip-rule="nonzero"/></clipPath></defs><rect x="-28.8" width="345.6" fill="#ffffff" y="-28.799999" height="345.599986" fill-opacity="1"/><rect x="-28.8" width="345.6" fill="#ffffff" y="-28.799999" height="345.599986" fill-opacity="1"/><rect x="-28.8" width="345.6" fill="#ffffff" y="-28.799999" height="345.599986" fill-opacity="1"/><g clip-path="url(#7df13e4121)"><path fill="#231d93" d="M 46.664062 212.742188 C 46.324219 212.742188 45.984375 212.589844 45.757812 212.296875 C 43.15625 208.953125 40.726562 205.425781 38.527344 201.8125 C 38.199219 201.269531 38.371094 200.5625 38.914062 200.230469 C 39.457031 199.902344 40.164062 200.074219 40.492188 200.617188 C 42.644531 204.15625 45.027344 207.609375 47.574219 210.882812 C 47.960938 211.386719 47.871094 212.109375 47.371094 212.5 C 47.160156 212.660156 46.914062 212.742188 46.664062 212.742188 Z M 33.597656 191.238281 C 33.160156 191.238281 32.746094 190.988281 32.550781 190.566406 C 30.78125 186.71875 29.21875 182.730469 27.910156 178.707031 C 27.710938 178.105469 28.042969 177.453125 28.644531 177.257812 C 29.25 177.0625 29.898438 177.390625 30.09375 177.996094 C 31.378906 181.933594 32.90625 185.839844 34.640625 189.605469 C 34.90625 190.183594 34.652344 190.867188 34.074219 191.132812 C 33.917969 191.203125 33.757812 191.238281 33.597656 191.238281 Z M 25.792969 167.316406 C 25.257812 167.316406 24.777344 166.9375 24.667969 166.394531 C 23.832031 162.253906 23.226562 158.011719 22.871094 153.789062 C 22.816406 153.15625 23.285156 152.597656 23.917969 152.542969 C 24.550781 152.492188 25.105469 152.960938 25.160156 153.59375 C 25.511719 157.730469 26.101562 161.882812 26.921875 165.9375 C 27.046875 166.558594 26.644531 167.167969 26.023438 167.292969 C 25.945312 167.308594 25.871094 167.316406 25.792969 167.316406 Z M 23.667969 142.242188 C 23.65625 142.242188 23.644531 142.242188 23.632812 142.242188 C 23 142.222656 22.5 141.691406 22.519531 141.058594 C 22.640625 136.816406 23.007812 132.546875 23.609375 128.367188 C 23.703125 127.738281 24.285156 127.300781 24.914062 127.394531 C 25.542969 127.484375 25.976562 128.066406 25.886719 128.695312 C 25.296875 132.789062 24.9375 136.96875 24.816406 141.125 C 24.800781 141.746094 24.289062 142.242188 23.667969 142.242188 Z M 23.667969 142.242188 " fill-opacity="1" fill-rule="nonzero"/></g><path fill="#231d93" d="M 144.707031 254.523438 C 144.128906 254.523438 143.628906 254.085938 143.566406 253.492188 C 143.5 252.863281 143.960938 252.296875 144.589844 252.230469 C 148.71875 251.800781 152.859375 251.128906 156.898438 250.226562 C 157.515625 250.089844 158.132812 250.480469 158.269531 251.101562 C 158.40625 251.722656 158.015625 252.335938 157.398438 252.472656 C 153.273438 253.390625 149.042969 254.078125 144.828125 254.519531 C 144.789062 254.523438 144.75 254.523438 144.707031 254.523438 Z M 169.265625 249.054688 C 168.789062 249.054688 168.34375 248.757812 168.179688 248.28125 C 167.972656 247.683594 168.289062 247.027344 168.886719 246.820312 C 172.796875 245.457031 176.671875 243.851562 180.40625 242.046875 C 180.976562 241.769531 181.664062 242.007812 181.941406 242.578125 C 182.21875 243.152344 181.976562 243.839844 181.40625 244.117188 C 177.59375 245.960938 173.636719 247.601562 169.644531 248.992188 C 169.519531 249.035156 169.390625 249.054688 169.265625 249.054688 Z M 191.914062 238.097656 C 191.53125 238.097656 191.160156 237.90625 190.941406 237.5625 C 190.601562 237.027344 190.761719 236.316406 191.296875 235.976562 C 194.792969 233.753906 198.199219 231.304688 201.421875 228.695312 C 201.914062 228.296875 202.636719 228.371094 203.039062 228.867188 C 203.4375 229.359375 203.359375 230.085938 202.867188 230.484375 C 199.578125 233.148438 196.097656 235.648438 192.527344 237.917969 C 192.335938 238.039062 192.125 238.097656 191.914062 238.097656 Z M 191.914062 238.097656 " fill-opacity="1" fill-rule="nonzero"/><path fill="#231d93" d="M 232.496094 192.023438 C 232.332031 192.023438 232.164062 191.988281 232.007812 191.914062 C 231.433594 191.644531 231.183594 190.960938 231.453125 190.386719 C 233.21875 186.632812 234.777344 182.734375 236.09375 178.808594 C 236.292969 178.207031 236.945312 177.882812 237.546875 178.082031 C 238.152344 178.285156 238.476562 178.9375 238.273438 179.539062 C 236.929688 183.550781 235.335938 187.527344 233.535156 191.363281 C 233.339844 191.78125 232.925781 192.023438 232.496094 192.023438 Z M 240.488281 168.160156 C 240.410156 168.160156 240.328125 168.152344 240.25 168.136719 C 239.628906 168.003906 239.230469 167.394531 239.363281 166.773438 C 240.214844 162.722656 240.839844 158.574219 241.222656 154.4375 C 241.277344 153.804688 241.839844 153.339844 242.472656 153.398438 C 243.105469 153.457031 243.570312 154.019531 243.511719 154.652344 C 243.121094 158.875 242.480469 163.109375 241.613281 167.246094 C 241.5 167.789062 241.019531 168.160156 240.488281 168.160156 Z M 240.488281 168.160156 " fill-opacity="1" fill-rule="nonzero"/><path fill="#231d93" d="M 212.238281 69.476562 C 211.933594 69.476562 211.632812 69.359375 211.410156 69.125 C 208.535156 66.136719 205.460938 63.28125 202.265625 60.640625 C 201.777344 60.238281 201.707031 59.511719 202.113281 59.023438 C 202.515625 58.53125 203.242188 58.464844 203.730469 58.867188 C 206.992188 61.5625 210.132812 64.476562 213.066406 67.527344 C 213.507812 67.984375 213.492188 68.714844 213.035156 69.15625 C 212.8125 69.371094 212.523438 69.476562 212.238281 69.476562 Z M 192.839844 53.445312 C 192.625 53.445312 192.410156 53.386719 192.214844 53.261719 C 188.738281 51 185.09375 48.921875 181.386719 47.082031 C 180.816406 46.800781 180.585938 46.109375 180.867188 45.539062 C 181.148438 44.96875 181.839844 44.738281 182.40625 45.019531 C 186.195312 46.902344 189.914062 49.023438 193.46875 51.332031 C 194 51.675781 194.152344 52.390625 193.804688 52.921875 C 193.585938 53.261719 193.214844 53.445312 192.839844 53.445312 Z M 170.304688 42.257812 C 170.175781 42.257812 170.046875 42.238281 169.917969 42.191406 C 166.019531 40.789062 161.996094 39.601562 157.960938 38.660156 C 157.34375 38.515625 156.957031 37.898438 157.101562 37.277344 C 157.246094 36.660156 157.863281 36.273438 158.484375 36.417969 C 162.605469 37.382812 166.714844 38.59375 170.695312 40.027344 C 171.292969 40.242188 171.601562 40.898438 171.386719 41.496094 C 171.21875 41.96875 170.777344 42.257812 170.304688 42.257812 Z M 145.808594 36.542969 C 145.765625 36.542969 145.722656 36.539062 145.675781 36.535156 C 141.574219 36.066406 137.386719 35.828125 133.226562 35.828125 C 132.59375 35.828125 132.078125 35.3125 132.078125 34.675781 C 132.078125 34.042969 132.59375 33.527344 133.226562 33.527344 C 137.472656 33.527344 141.746094 33.769531 145.9375 34.246094 C 146.566406 34.320312 147.023438 34.890625 146.949219 35.519531 C 146.882812 36.109375 146.386719 36.542969 145.808594 36.542969 Z M 145.808594 36.542969 " fill-opacity="1" fill-rule="nonzero"/><path fill="#d4e1ff" d="M 213.703125 144.324219 C 213.703125 145.640625 213.671875 146.957031 213.605469 148.273438 C 213.542969 149.589844 213.445312 150.902344 213.316406 152.214844 C 213.1875 153.523438 213.027344 154.832031 212.832031 156.136719 C 212.640625 157.4375 212.414062 158.738281 212.15625 160.027344 C 211.902344 161.320312 211.613281 162.605469 211.292969 163.882812 C 210.972656 165.160156 210.621094 166.429688 210.238281 167.691406 C 209.855469 168.953125 209.441406 170.203125 209 171.445312 C 208.554688 172.683594 208.082031 173.914062 207.578125 175.128906 C 207.074219 176.347656 206.539062 177.550781 205.976562 178.742188 C 205.414062 179.933594 204.820312 181.109375 204.203125 182.273438 C 203.582031 183.433594 202.929688 184.582031 202.253906 185.710938 C 201.578125 186.839844 200.871094 187.953125 200.140625 189.046875 C 199.410156 190.144531 198.652344 191.222656 197.867188 192.277344 C 197.082031 193.335938 196.273438 194.375 195.4375 195.394531 C 194.601562 196.414062 193.742188 197.410156 192.855469 198.386719 C 191.972656 199.363281 191.0625 200.316406 190.132812 201.246094 C 189.203125 202.179688 188.25 203.085938 187.273438 203.972656 C 186.296875 204.855469 185.300781 205.71875 184.28125 206.554688 C 183.261719 207.390625 182.226562 208.199219 181.167969 208.984375 C 180.109375 209.769531 179.03125 210.527344 177.9375 211.257812 C 176.84375 211.992188 175.730469 212.695312 174.601562 213.375 C 173.472656 214.050781 172.324219 214.699219 171.164062 215.320312 C 170.003906 215.941406 168.828125 216.535156 167.636719 217.097656 C 166.445312 217.660156 165.242188 218.195312 164.023438 218.699219 C 162.808594 219.203125 161.578125 219.675781 160.339844 220.121094 C 159.097656 220.566406 157.847656 220.976562 156.589844 221.359375 C 155.328125 221.742188 154.058594 222.09375 152.78125 222.414062 C 151.503906 222.734375 150.21875 223.023438 148.929688 223.28125 C 147.636719 223.539062 146.339844 223.761719 145.035156 223.957031 C 143.734375 224.148438 142.425781 224.308594 141.117188 224.4375 C 139.804688 224.570312 138.492188 224.664062 137.175781 224.730469 C 135.863281 224.792969 134.546875 224.828125 133.226562 224.828125 C 131.910156 224.828125 130.59375 224.792969 129.28125 224.730469 C 127.964844 224.664062 126.652344 224.570312 125.339844 224.4375 C 124.03125 224.308594 122.722656 224.148438 121.421875 223.957031 C 120.117188 223.761719 118.820312 223.539062 117.527344 223.28125 C 116.238281 223.023438 114.953125 222.734375 113.675781 222.414062 C 112.398438 222.09375 111.128906 221.742188 109.867188 221.359375 C 108.605469 220.976562 107.355469 220.566406 106.117188 220.121094 C 104.875 219.675781 103.648438 219.203125 102.429688 218.699219 C 101.214844 218.195312 100.011719 217.660156 98.820312 217.097656 C 97.628906 216.535156 96.453125 215.941406 95.292969 215.320312 C 94.128906 214.699219 92.984375 214.050781 91.855469 213.375 C 90.726562 212.695312 89.613281 211.992188 88.519531 211.257812 C 87.421875 210.527344 86.347656 209.769531 85.289062 208.984375 C 84.230469 208.199219 83.191406 207.390625 82.175781 206.554688 C 81.15625 205.71875 80.160156 204.855469 79.183594 203.972656 C 78.207031 203.085938 77.253906 202.179688 76.324219 201.246094 C 75.390625 200.316406 74.484375 199.363281 73.601562 198.386719 C 72.714844 197.410156 71.855469 196.414062 71.019531 195.394531 C 70.183594 194.375 69.375 193.335938 68.589844 192.277344 C 67.804688 191.222656 67.046875 190.144531 66.316406 189.046875 C 65.582031 187.953125 64.878906 186.839844 64.203125 185.710938 C 63.523438 184.582031 62.875 183.433594 62.253906 182.273438 C 61.632812 181.109375 61.042969 179.933594 60.480469 178.742188 C 59.917969 177.550781 59.382812 176.347656 58.878906 175.128906 C 58.375 173.914062 57.902344 172.683594 57.457031 171.445312 C 57.011719 170.203125 56.601562 168.953125 56.21875 167.691406 C 55.835938 166.429688 55.484375 165.160156 55.164062 163.882812 C 54.84375 162.605469 54.554688 161.320312 54.300781 160.027344 C 54.042969 158.738281 53.816406 157.4375 53.625 156.136719 C 53.429688 154.832031 53.269531 153.523438 53.140625 152.214844 C 53.011719 150.902344 52.914062 149.589844 52.847656 148.273438 C 52.785156 146.957031 52.753906 145.640625 52.753906 144.324219 C 52.753906 143.003906 52.785156 141.6875 52.847656 140.371094 C 52.914062 139.058594 53.011719 137.742188 53.140625 136.433594 C 53.269531 135.121094 53.429688 133.8125 53.625 132.511719 C 53.816406 131.207031 54.042969 129.910156 54.300781 128.617188 C 54.554688 127.324219 54.84375 126.039062 55.164062 124.761719 C 55.484375 123.484375 55.835938 122.214844 56.21875 120.953125 C 56.601562 119.691406 57.011719 118.441406 57.457031 117.203125 C 57.902344 115.960938 58.375 114.734375 58.878906 113.515625 C 59.382812 112.296875 59.917969 111.09375 60.480469 109.902344 C 61.042969 108.710938 61.632812 107.535156 62.253906 106.375 C 62.875 105.210938 63.523438 104.066406 64.203125 102.9375 C 64.878906 101.804688 65.582031 100.691406 66.316406 99.597656 C 67.046875 98.5 67.804688 97.425781 68.589844 96.367188 C 69.375 95.308594 70.183594 94.269531 71.019531 93.25 C 71.855469 92.234375 72.714844 91.234375 73.601562 90.261719 C 74.484375 89.285156 75.390625 88.328125 76.324219 87.398438 C 77.253906 86.464844 78.207031 85.558594 79.183594 84.671875 C 80.160156 83.789062 81.15625 82.929688 82.175781 82.09375 C 83.191406 81.257812 84.230469 80.445312 85.289062 79.660156 C 86.347656 78.875 87.421875 78.117188 88.519531 77.386719 C 89.613281 76.65625 90.726562 75.949219 91.855469 75.273438 C 92.984375 74.59375 94.128906 73.945312 95.292969 73.324219 C 96.453125 72.703125 97.628906 72.113281 98.820312 71.546875 C 100.011719 70.984375 101.214844 70.449219 102.429688 69.945312 C 103.648438 69.441406 104.875 68.96875 106.117188 68.523438 C 107.355469 68.082031 108.605469 67.667969 109.867188 67.285156 C 111.128906 66.902344 112.398438 66.550781 113.675781 66.230469 C 114.953125 65.910156 116.238281 65.621094 117.527344 65.367188 C 118.820312 65.109375 120.117188 64.882812 121.421875 64.691406 C 122.722656 64.496094 124.03125 64.335938 125.339844 64.207031 C 126.652344 64.078125 127.964844 63.980469 129.28125 63.914062 C 130.59375 63.851562 131.910156 63.820312 133.226562 63.820312 C 134.546875 63.820312 135.863281 63.851562 137.175781 63.914062 C 138.492188 63.980469 139.804688 64.078125 141.117188 64.207031 C 142.425781 64.335938 143.734375 64.496094 145.035156 64.691406 C 146.339844 64.882812 147.636719 65.109375 148.929688 65.367188 C 150.21875 65.621094 151.503906 65.910156 152.78125 66.230469 C 154.058594 66.550781 155.328125 66.902344 156.589844 67.285156 C 157.847656 67.667969 159.097656 68.082031 160.339844 68.523438 C 161.578125 68.96875 162.808594 69.441406 164.023438 69.945312 C 165.242188 70.449219 166.445312 70.984375 167.636719 71.546875 C 168.828125 72.113281 170.003906 72.703125 171.164062 73.324219 C 172.324219 73.945312 173.472656 74.59375 174.601562 75.273438 C 175.730469 75.949219 176.84375 76.65625 177.9375 77.386719 C 179.03125 78.117188 180.109375 78.875 181.167969 79.660156 C 182.226562 80.445312 183.261719 81.257812 184.28125 82.09375 C 185.300781 82.929688 186.296875 83.789062 187.273438 84.671875 C 188.25 85.558594 189.203125 86.464844 190.132812 87.398438 C 191.0625 88.328125 191.972656 89.285156 192.855469 90.261719 C 193.742188 91.234375 194.601562 92.234375 195.4375 93.25 C 196.273438 94.269531 197.082031 95.308594 197.867188 96.367188 C 198.652344 97.425781 199.410156 98.5 200.140625 99.597656 C 200.871094 100.691406 201.578125 101.804688 202.253906 102.9375 C 202.929688 104.066406 203.582031 105.210938 204.203125 106.375 C 204.820312 107.535156 205.414062 108.710938 205.976562 109.902344 C 206.539062 111.09375 207.074219 112.296875 207.578125 113.515625 C 208.082031 114.734375 208.554688 115.960938 209 117.203125 C 209.441406 118.441406 209.855469 119.691406 210.238281 120.953125 C 210.621094 122.214844 210.972656 123.484375 211.292969 124.761719 C 211.613281 126.039062 211.902344 127.324219 212.15625 128.617188 C 212.414062 129.910156 212.640625 131.207031 212.832031 132.511719 C 213.027344 133.8125 213.1875 135.121094 213.316406 136.433594 C 213.445312 137.742188 213.542969 139.058594 213.605469 140.371094 C 213.671875 141.6875 213.703125 143.003906 213.703125 144.324219 Z M 213.703125 144.324219 " fill-opacity="1" fill-rule="nonzero"/><path fill="#ff9b80" d="M 129.78125 247.144531 L 120.78125 247.144531 L 116.628906 236.257812 L 99.65625 236.257812 L 95.503906 247.144531 L 85.554688 247.144531 C 83.488281 247.144531 81.8125 248.820312 81.8125 250.890625 L 81.8125 255.003906 L 133.527344 255.003906 L 133.527344 250.890625 C 133.527344 248.820312 131.851562 247.144531 129.78125 247.144531 Z M 129.78125 247.144531 " fill-opacity="1" fill-rule="nonzero"/><g clip-path="url(#413c8d7f2b)"><path fill="#231d93" d="M 133.527344 256.152344 L 81.8125 256.152344 C 81.175781 256.152344 80.664062 255.636719 80.664062 255 L 80.664062 250.890625 C 80.664062 248.191406 82.855469 245.996094 85.554688 245.996094 L 94.710938 245.996094 L 98.582031 235.847656 C 98.75 235.402344 99.179688 235.105469 99.65625 235.105469 L 116.628906 235.105469 C 117.105469 235.105469 117.535156 235.402344 117.703125 235.847656 L 121.574219 245.996094 L 129.78125 245.996094 C 132.480469 245.996094 134.675781 248.191406 134.675781 250.890625 L 134.675781 255 C 134.675781 255.636719 134.160156 256.152344 133.527344 256.152344 Z M 82.960938 253.851562 L 132.375 253.851562 L 132.375 250.890625 C 132.375 249.460938 131.210938 248.296875 129.78125 248.296875 L 120.78125 248.296875 C 120.304688 248.296875 119.875 248 119.707031 247.554688 L 115.835938 237.40625 L 100.449219 237.40625 L 96.578125 247.554688 C 96.410156 248 95.980469 248.296875 95.503906 248.296875 L 85.554688 248.296875 C 84.125 248.296875 82.960938 249.460938 82.960938 250.890625 Z M 82.960938 253.851562 " fill-opacity="1" fill-rule="nonzero"/></g><path fill="#ffffff" d="M 159.238281 167.230469 C 159.238281 162.699219 155.566406 159.027344 151.039062 159.027344 L 64.300781 159.027344 C 59.773438 159.027344 56.101562 162.699219 56.101562 167.230469 L 56.101562 228.054688 C 56.101562 232.585938 59.773438 236.257812 64.300781 236.257812 L 151.039062 236.257812 C 155.566406 236.257812 159.238281 232.585938 159.238281 228.054688 L 159.238281 167.230469 C 159.238281 162.699219 155.566406 159.027344 151.039062 159.027344 L 64.300781 159.027344 C 59.773438 159.027344 56.101562 162.699219 56.101562 167.230469 Z M 159.238281 167.230469 " fill-opacity="1" fill-rule="nonzero"/><path fill="#231d93" d="M 151.039062 237.40625 L 64.300781 237.40625 C 59.144531 237.40625 54.953125 233.210938 54.953125 228.054688 L 54.953125 167.230469 C 54.953125 162.074219 59.144531 157.878906 64.300781 157.878906 L 151.039062 157.878906 C 156.195312 157.878906 160.386719 162.074219 160.386719 167.230469 L 160.386719 228.054688 C 160.386719 233.210938 156.195312 237.40625 151.039062 237.40625 Z M 57.25 167.230469 L 57.25 228.054688 C 57.25 231.941406 60.414062 235.105469 64.300781 235.105469 L 151.039062 235.105469 C 154.925781 235.105469 158.085938 231.941406 158.085938 228.054688 L 158.085938 167.230469 C 158.085938 163.339844 154.925781 160.179688 151.039062 160.179688 L 64.300781 160.179688 C 60.414062 160.179688 57.25 163.339844 57.25 167.230469 Z M 57.25 167.230469 " fill-opacity="1" fill-rule="nonzero"/><path fill="#ff9b80" d="M 159.238281 228.054688 C 159.238281 232.585938 155.566406 236.257812 151.039062 236.257812 L 64.300781 236.257812 C 59.773438 236.257812 56.101562 232.585938 56.101562 228.054688 L 56.101562 226.292969 L 159.238281 226.292969 Z M 159.238281 228.054688 " fill-opacity="1" fill-rule="nonzero"/><path fill="#231d93" d="M 151.039062 237.40625 L 64.300781 237.40625 C 59.144531 237.40625 54.953125 233.210938 54.953125 228.054688 L 54.953125 226.292969 C 54.953125 225.65625 55.464844 225.140625 56.101562 225.140625 L 159.238281 225.140625 C 159.871094 225.140625 160.386719 225.65625 160.386719 226.292969 L 160.386719 228.054688 C 160.386719 233.210938 156.195312 237.40625 151.039062 237.40625 Z M 57.25 227.441406 L 57.25 228.054688 C 57.25 231.941406 60.414062 235.105469 64.300781 235.105469 L 151.039062 235.105469 C 154.925781 235.105469 158.085938 231.941406 158.085938 228.054688 L 158.085938 227.441406 Z M 57.25 227.441406 " fill-opacity="1" fill-rule="nonzero"/><path fill="#ff9b80" d="M 87.457031 168.992188 L 56.101562 168.992188 L 56.101562 167.230469 C 56.101562 162.699219 59.773438 159.027344 64.300781 159.027344 L 151.039062 159.027344 C 155.566406 159.027344 159.238281 162.699219 159.238281 167.230469 L 159.238281 168.992188 Z M 87.457031 168.992188 " fill-opacity="1" fill-rule="nonzero"/><path fill="#231d93" d="M 159.238281 170.144531 L 127.882812 170.144531 C 127.246094 170.144531 126.734375 169.628906 126.734375 168.992188 C 126.734375 168.355469 127.246094 167.84375 127.882812 167.84375 L 158.085938 167.84375 L 158.085938 167.230469 C 158.085938 163.339844 154.925781 160.179688 151.039062 160.179688 L 64.300781 160.179688 C 60.414062 160.179688 57.25 163.339844 57.25 167.230469 L 57.25 167.84375 L 87.457031 167.84375 C 88.089844 167.84375 88.605469 168.355469 88.605469 168.992188 C 88.605469 169.628906 88.089844 170.144531 87.457031 170.144531 L 56.101562 170.144531 C 55.464844 170.144531 54.953125 169.628906 54.953125 168.992188 L 54.953125 167.230469 C 54.953125 162.074219 59.144531 157.878906 64.300781 157.878906 L 151.039062 157.878906 C 156.191406 157.878906 160.386719 162.074219 160.386719 167.230469 L 160.386719 168.992188 C 160.386719 169.628906 159.871094 170.144531 159.238281 170.144531 Z M 159.238281 170.144531 " fill-opacity="1" fill-rule="nonzero"/><path fill="#9fabff" d="M 131.179688 199.632812 L 127.4375 199.632812 C 127.011719 199.632812 126.644531 199.914062 126.515625 200.320312 C 126.175781 201.394531 125.746094 202.429688 125.234375 203.414062 C 125.035156 203.792969 125.097656 204.253906 125.398438 204.554688 L 128.046875 207.203125 C 128.753906 207.910156 128.753906 209.058594 128.046875 209.765625 L 123.105469 214.707031 C 122.398438 215.417969 121.25 215.417969 120.542969 214.707031 L 117.894531 212.058594 C 117.59375 211.757812 117.136719 211.699219 116.757812 211.894531 C 115.769531 212.40625 114.738281 212.835938 113.664062 213.179688 C 113.257812 213.304688 112.976562 213.675781 112.976562 214.097656 L 112.976562 217.84375 C 112.976562 218.84375 112.164062 219.65625 111.164062 219.65625 L 104.175781 219.65625 C 103.175781 219.65625 102.363281 218.84375 102.363281 217.84375 L 102.363281 214.097656 C 102.363281 213.671875 102.082031 213.304688 101.675781 213.179688 C 100.601562 212.835938 99.566406 212.40625 98.582031 211.894531 C 98.203125 211.699219 97.746094 211.757812 97.445312 212.058594 L 94.796875 214.707031 C 94.089844 215.417969 92.941406 215.417969 92.234375 214.707031 L 87.292969 209.765625 C 86.585938 209.058594 86.585938 207.910156 87.292969 207.203125 L 89.941406 204.554688 C 90.242188 204.253906 90.300781 203.792969 90.105469 203.414062 C 89.59375 202.429688 89.164062 201.394531 88.824219 200.320312 C 88.695312 199.914062 88.328125 199.632812 87.902344 199.632812 L 84.160156 199.632812 C 83.15625 199.632812 82.347656 198.820312 82.347656 197.820312 L 82.347656 190.832031 C 82.347656 189.828125 83.15625 189.015625 84.160156 189.015625 L 87.902344 189.015625 C 88.328125 189.015625 88.695312 188.734375 88.824219 188.328125 C 89.164062 187.253906 89.59375 186.21875 90.105469 185.234375 C 90.300781 184.855469 90.242188 184.398438 89.941406 184.097656 L 87.292969 181.449219 C 86.585938 180.738281 86.585938 179.589844 87.292969 178.882812 L 92.234375 173.941406 C 92.941406 173.234375 94.089844 173.234375 94.796875 173.941406 L 97.445312 176.589844 C 97.746094 176.890625 98.203125 176.949219 98.582031 176.753906 C 99.566406 176.242188 100.601562 175.8125 101.675781 175.472656 C 102.082031 175.34375 102.363281 174.976562 102.363281 174.550781 L 102.363281 170.804688 C 102.363281 169.804688 103.175781 168.992188 104.175781 168.992188 L 111.164062 168.992188 C 112.164062 168.992188 112.976562 169.804688 112.976562 170.804688 L 112.976562 174.550781 C 112.976562 174.976562 113.257812 175.34375 113.664062 175.472656 C 114.738281 175.8125 115.769531 176.242188 116.757812 176.753906 C 117.136719 176.949219 117.59375 176.890625 117.894531 176.589844 L 120.542969 173.941406 C 121.25 173.234375 122.398438 173.234375 123.105469 173.941406 L 128.046875 178.882812 C 128.753906 179.589844 128.753906 180.738281 128.046875 181.449219 L 125.398438 184.097656 C 125.097656 184.398438 125.039062 184.855469 125.234375 185.234375 C 125.746094 186.21875 126.175781 187.253906 126.515625 188.328125 C 126.644531 188.734375 127.011719 189.015625 127.4375 189.015625 L 131.179688 189.015625 C 132.179688 189.015625 132.992188 189.828125 132.992188 190.832031 L 132.992188 197.820312 C 132.992188 198.820312 132.179688 199.632812 131.179688 199.632812 Z M 131.179688 199.632812 " fill-opacity="1" fill-rule="nonzero"/><path fill="#231d93" d="M 111.164062 220.808594 L 104.175781 220.808594 C 102.542969 220.808594 101.214844 219.476562 101.214844 217.84375 L 101.214844 214.238281 C 100.167969 213.898438 99.140625 213.472656 98.160156 212.972656 L 95.609375 215.523438 C 94.453125 216.675781 92.574219 216.675781 91.417969 215.523438 L 86.480469 210.582031 C 85.921875 210.019531 85.613281 209.277344 85.613281 208.484375 C 85.613281 207.691406 85.921875 206.949219 86.480469 206.390625 L 89.03125 203.839844 C 88.527344 202.859375 88.101562 201.832031 87.765625 200.78125 L 84.160156 200.78125 C 82.523438 200.78125 81.195312 199.453125 81.195312 197.820312 L 81.195312 190.832031 C 81.195312 189.195312 82.523438 187.867188 84.160156 187.867188 L 87.765625 187.867188 C 88.101562 186.820312 88.527344 185.792969 89.03125 184.8125 L 86.480469 182.261719 C 85.324219 181.105469 85.324219 179.226562 86.480469 178.070312 L 91.417969 173.128906 C 91.980469 172.566406 92.722656 172.261719 93.515625 172.261719 C 94.304688 172.261719 95.050781 172.566406 95.609375 173.128906 L 98.160156 175.679688 C 99.140625 175.175781 100.167969 174.753906 101.214844 174.414062 L 101.214844 170.804688 C 101.214844 169.171875 102.542969 167.84375 104.175781 167.84375 L 111.164062 167.84375 C 112.796875 167.84375 114.125 169.171875 114.125 170.804688 L 114.125 174.414062 C 115.171875 174.753906 116.199219 175.179688 117.179688 175.679688 L 119.730469 173.128906 C 120.882812 171.972656 122.765625 171.972656 123.917969 173.128906 L 128.859375 178.070312 C 129.417969 178.628906 129.726562 179.375 129.726562 180.164062 C 129.726562 180.957031 129.417969 181.703125 128.859375 182.261719 L 126.308594 184.8125 C 126.808594 185.792969 127.234375 186.820312 127.574219 187.867188 L 131.179688 187.867188 C 132.8125 187.867188 134.144531 189.195312 134.144531 190.832031 L 134.144531 197.820312 C 134.144531 199.453125 132.8125 200.785156 131.179688 200.785156 L 127.574219 200.785156 C 127.234375 201.832031 126.808594 202.855469 126.308594 203.839844 L 128.859375 206.390625 C 129.417969 206.949219 129.726562 207.691406 129.726562 208.484375 C 129.726562 209.277344 129.417969 210.019531 128.859375 210.582031 L 123.917969 215.523438 C 122.765625 216.679688 120.882812 216.675781 119.730469 215.523438 L 117.179688 212.972656 C 116.199219 213.472656 115.171875 213.898438 114.125 214.238281 L 114.125 217.84375 C 114.125 219.476562 112.796875 220.808594 111.164062 220.808594 Z M 98.121094 210.628906 C 98.457031 210.628906 98.796875 210.710938 99.109375 210.875 C 100.042969 211.355469 101.023438 211.761719 102.023438 212.082031 C 102.914062 212.363281 103.511719 213.175781 103.511719 214.097656 L 103.511719 217.84375 C 103.511719 218.210938 103.8125 218.507812 104.175781 218.507812 L 111.164062 218.507812 C 111.527344 218.507812 111.824219 218.210938 111.824219 217.84375 L 111.824219 214.097656 C 111.824219 213.175781 112.421875 212.363281 113.3125 212.082031 C 114.316406 211.761719 115.296875 211.355469 116.226562 210.875 C 117.058594 210.441406 118.054688 210.59375 118.707031 211.246094 L 121.355469 213.894531 C 121.613281 214.152344 122.035156 214.152344 122.292969 213.894531 L 127.234375 208.953125 C 127.359375 208.828125 127.425781 208.660156 127.425781 208.484375 C 127.425781 208.308594 127.359375 208.140625 127.234375 208.015625 L 124.585938 205.367188 C 123.933594 204.714844 123.78125 203.714844 124.210938 202.886719 C 124.695312 201.953125 125.101562 200.972656 125.417969 199.972656 C 125.703125 199.082031 126.511719 198.480469 127.4375 198.480469 L 131.179688 198.480469 C 131.546875 198.480469 131.84375 198.183594 131.84375 197.820312 L 131.84375 190.832031 C 131.84375 190.464844 131.546875 190.167969 131.179688 190.167969 L 127.4375 190.167969 C 126.511719 190.167969 125.703125 189.570312 125.417969 188.675781 C 125.101562 187.675781 124.695312 186.695312 124.210938 185.761719 C 123.78125 184.933594 123.933594 183.9375 124.585938 183.28125 L 127.234375 180.632812 C 127.359375 180.507812 127.425781 180.34375 127.425781 180.164062 C 127.425781 179.988281 127.359375 179.820312 127.234375 179.695312 L 122.292969 174.753906 C 122.035156 174.496094 121.613281 174.496094 121.355469 174.753906 L 118.707031 177.402344 C 118.054688 178.054688 117.058594 178.207031 116.226562 177.777344 C 115.296875 177.292969 114.316406 176.886719 113.3125 176.566406 C 112.421875 176.285156 111.824219 175.472656 111.824219 174.550781 L 111.824219 170.804688 C 111.824219 170.441406 111.527344 170.140625 111.164062 170.140625 L 104.175781 170.140625 C 103.8125 170.140625 103.511719 170.441406 103.511719 170.804688 L 103.511719 174.550781 C 103.511719 175.472656 102.914062 176.285156 102.023438 176.566406 C 101.023438 176.886719 100.042969 177.292969 99.109375 177.777344 C 98.28125 178.207031 97.285156 178.058594 96.628906 177.402344 L 93.984375 174.753906 C 93.859375 174.628906 93.691406 174.558594 93.515625 174.558594 C 93.335938 174.558594 93.171875 174.628906 93.046875 174.753906 L 88.105469 179.695312 C 87.847656 179.953125 87.847656 180.375 88.105469 180.632812 L 90.753906 183.28125 C 91.40625 183.9375 91.558594 184.933594 91.125 185.765625 C 90.644531 186.695312 90.238281 187.675781 89.917969 188.679688 C 89.636719 189.570312 88.824219 190.167969 87.902344 190.167969 L 84.160156 190.167969 C 83.792969 190.167969 83.496094 190.464844 83.496094 190.832031 L 83.496094 197.820312 C 83.496094 198.183594 83.792969 198.480469 84.160156 198.480469 L 87.902344 198.480469 C 88.824219 198.480469 89.636719 199.082031 89.917969 199.972656 C 90.238281 200.972656 90.644531 201.953125 91.125 202.886719 C 91.558594 203.714844 91.40625 204.714844 90.753906 205.367188 L 88.105469 208.015625 C 87.980469 208.140625 87.910156 208.308594 87.910156 208.484375 C 87.910156 208.660156 87.980469 208.828125 88.105469 208.953125 L 93.046875 213.894531 C 93.304688 214.152344 93.726562 214.152344 93.984375 213.894531 L 96.628906 211.246094 C 97.035156 210.84375 97.574219 210.628906 98.121094 210.628906 Z M 98.121094 210.628906 " fill-opacity="1" fill-rule="nonzero"/><path fill="#ffffff" d="M 121.632812 194.324219 C 121.632812 195.242188 121.542969 196.148438 121.363281 197.050781 C 121.183594 197.949219 120.917969 198.824219 120.566406 199.667969 C 120.21875 200.515625 119.789062 201.320312 119.277344 202.085938 C 118.769531 202.847656 118.191406 203.550781 117.542969 204.199219 C 116.894531 204.847656 116.1875 205.429688 115.425781 205.9375 C 114.664062 206.445312 113.859375 206.878906 113.011719 207.226562 C 112.164062 207.578125 111.292969 207.84375 110.394531 208.023438 C 109.492188 208.203125 108.585938 208.292969 107.667969 208.292969 C 106.753906 208.292969 105.84375 208.203125 104.945312 208.023438 C 104.046875 207.84375 103.171875 207.578125 102.328125 207.226562 C 101.480469 206.878906 100.675781 206.445312 99.914062 205.9375 C 99.152344 205.429688 98.445312 204.847656 97.796875 204.199219 C 97.148438 203.550781 96.570312 202.847656 96.0625 202.085938 C 95.550781 201.320312 95.121094 200.515625 94.769531 199.667969 C 94.417969 198.824219 94.15625 197.949219 93.976562 197.050781 C 93.796875 196.148438 93.707031 195.242188 93.707031 194.324219 C 93.707031 193.40625 93.796875 192.5 93.976562 191.601562 C 94.15625 190.699219 94.417969 189.828125 94.769531 188.980469 C 95.121094 188.132812 95.550781 187.328125 96.0625 186.566406 C 96.570312 185.804688 97.148438 185.097656 97.796875 184.449219 C 98.445312 183.800781 99.152344 183.222656 99.914062 182.710938 C 100.675781 182.203125 101.480469 181.773438 102.328125 181.421875 C 103.171875 181.070312 104.046875 180.804688 104.945312 180.625 C 105.84375 180.449219 106.753906 180.359375 107.667969 180.359375 C 108.585938 180.359375 109.492188 180.449219 110.394531 180.625 C 111.292969 180.804688 112.164062 181.070312 113.011719 181.421875 C 113.859375 181.773438 114.664062 182.203125 115.425781 182.710938 C 116.1875 183.222656 116.894531 183.800781 117.542969 184.449219 C 118.191406 185.097656 118.769531 185.804688 119.277344 186.566406 C 119.789062 187.328125 120.21875 188.132812 120.566406 188.980469 C 120.917969 189.828125 121.183594 190.699219 121.363281 191.601562 C 121.542969 192.5 121.632812 193.40625 121.632812 194.324219 Z M 121.632812 194.324219 " fill-opacity="1" fill-rule="nonzero"/><path fill="#231d93" d="M 107.667969 209.441406 C 99.335938 209.441406 92.558594 202.660156 92.558594 194.324219 C 92.558594 185.988281 99.335938 179.207031 107.667969 179.207031 C 116 179.207031 122.78125 185.988281 122.78125 194.324219 C 122.78125 202.660156 116 209.441406 107.667969 209.441406 Z M 107.667969 181.507812 C 100.605469 181.507812 94.859375 187.257812 94.859375 194.324219 C 94.859375 201.390625 100.605469 207.140625 107.667969 207.140625 C 114.734375 207.140625 120.480469 201.390625 120.480469 194.324219 C 120.480469 187.257812 114.734375 181.507812 107.667969 181.507812 Z M 107.667969 181.507812 " fill-opacity="1" fill-rule="nonzero"/><path fill="#ffce78" d="M 120.75 184.445312 C 119.574219 183.269531 117.667969 183.269531 116.492188 184.445312 L 107.105469 193.835938 L 103.617188 190.347656 C 102.441406 189.171875 100.535156 189.171875 99.359375 190.347656 C 98.183594 191.523438 98.183594 193.429688 99.359375 194.609375 L 104.71875 199.96875 C 105.375 200.621094 106.25 200.898438 107.105469 200.828125 C 107.957031 200.898438 108.835938 200.621094 109.488281 199.96875 L 120.75 188.703125 C 121.925781 187.527344 121.925781 185.621094 120.75 184.445312 Z M 120.75 184.445312 " fill-opacity="1" fill-rule="nonzero"/><path fill="#231d93" d="M 106.839844 201.988281 C 105.734375 201.988281 104.683594 201.558594 103.90625 200.78125 L 98.546875 195.421875 C 97.761719 194.636719 97.328125 193.589844 97.328125 192.476562 C 97.328125 191.367188 97.761719 190.320312 98.546875 189.535156 C 100.167969 187.914062 102.808594 187.914062 104.429688 189.535156 L 107.105469 192.210938 L 115.679688 183.632812 C 117.300781 182.011719 119.941406 182.011719 121.5625 183.632812 C 123.183594 185.253906 123.183594 187.894531 121.5625 189.519531 L 110.300781 200.78125 C 109.460938 201.621094 108.300781 202.054688 107.105469 201.980469 C 107.015625 201.984375 106.925781 201.988281 106.839844 201.988281 Z M 101.488281 190.617188 C 101.011719 190.617188 100.535156 190.800781 100.171875 191.164062 C 99.820312 191.515625 99.628906 191.980469 99.628906 192.476562 C 99.628906 192.976562 99.820312 193.441406 100.171875 193.792969 L 105.535156 199.15625 C 105.914062 199.539062 106.453125 199.726562 107.007812 199.679688 C 107.070312 199.675781 107.136719 199.675781 107.203125 199.679688 C 107.757812 199.730469 108.292969 199.539062 108.675781 199.15625 L 119.9375 187.890625 C 120.660156 187.167969 120.660156 185.984375 119.9375 185.257812 C 119.210938 184.535156 118.03125 184.535156 117.304688 185.257812 L 107.917969 194.652344 C 107.46875 195.101562 106.742188 195.101562 106.292969 194.652344 L 102.804688 191.164062 C 102.441406 190.800781 101.964844 190.617188 101.488281 190.617188 Z M 101.488281 190.617188 " fill-opacity="1" fill-rule="nonzero"/><path fill="#9fabff" d="M 36.0625 89.566406 L 36.0625 54.375 C 36.0625 53.105469 37.09375 52.074219 38.363281 52.074219 L 137.945312 52.074219 C 139.21875 52.074219 140.246094 53.105469 140.246094 54.375 L 140.246094 89.566406 C 140.246094 90.839844 139.21875 91.867188 137.945312 91.867188 L 38.363281 91.867188 C 37.09375 91.867188 36.0625 90.839844 36.0625 89.566406 Z M 36.0625 89.566406 " fill-opacity="1" fill-rule="nonzero"/><path fill="#231d93" d="M 137.945312 93.019531 L 38.363281 93.019531 C 36.460938 93.019531 34.914062 91.46875 34.914062 89.566406 L 34.914062 54.375 C 34.914062 52.472656 36.460938 50.925781 38.363281 50.925781 L 137.945312 50.925781 C 139.847656 50.925781 141.398438 52.472656 141.398438 54.375 L 141.398438 89.566406 C 141.398438 91.46875 139.847656 93.019531 137.945312 93.019531 Z M 38.363281 53.226562 C 37.730469 53.226562 37.214844 53.742188 37.214844 54.375 L 37.214844 89.566406 C 37.214844 90.203125 37.730469 90.71875 38.363281 90.71875 L 137.945312 90.71875 C 138.582031 90.71875 139.097656 90.203125 139.097656 89.566406 L 139.097656 54.375 C 139.097656 53.742188 138.582031 53.226562 137.945312 53.226562 Z M 38.363281 53.226562 " fill-opacity="1" fill-rule="nonzero"/><path fill="#ffffff" d="M 57.296875 142.9375 L 57.296875 133.015625 C 57.296875 131.90625 57.738281 130.84375 58.527344 130.066406 L 62.988281 125.640625 C 65.339844 122.558594 66.980469 118.996094 67.796875 115.203125 L 70.910156 100.503906 C 71.253906 98.871094 70.242188 97.261719 68.625 96.867188 C 66.929688 96.449219 65.226562 97.527344 64.871094 99.238281 L 63.601562 105.390625 C 63.390625 106.402344 62.933594 107.34375 62.269531 108.132812 L 61.507812 109.039062 C 61.164062 109.453125 60.5 109.328125 60.328125 108.820312 L 59.710938 107.03125 C 59.484375 106.378906 59.371094 105.695312 59.371094 105.003906 L 59.371094 79.734375 C 59.371094 77.890625 57.878906 76.398438 56.035156 76.398438 C 54.191406 76.398438 52.695312 77.890625 52.695312 79.734375 L 52.695312 100.578125 L 52.695312 75.382812 C 52.695312 73.539062 51.203125 72.042969 49.359375 72.042969 C 47.515625 72.042969 46.023438 73.539062 46.023438 75.382812 L 46.023438 100.574219 L 46.019531 100.574219 L 46.019531 79.738281 C 46.019531 77.894531 44.527344 76.398438 42.683594 76.398438 C 40.839844 76.398438 39.347656 77.894531 39.347656 79.738281 L 39.347656 100.574219 L 39.347656 86.871094 C 39.347656 85.027344 37.851562 83.53125 36.011719 83.53125 C 34.167969 83.53125 32.671875 85.027344 32.671875 86.871094 L 32.671875 116.265625 C 32.671875 119.324219 33.609375 122.304688 35.355469 124.8125 L 38.761719 129.703125 C 39.476562 130.734375 39.863281 131.957031 39.863281 133.210938 L 39.863281 142.9375 Z M 57.296875 142.9375 " fill-opacity="1" fill-rule="nonzero"/><path fill="#231d93" d="M 57.296875 144.085938 C 56.664062 144.085938 56.148438 143.574219 56.148438 142.9375 L 56.148438 133.015625 C 56.148438 131.609375 56.71875 130.238281 57.714844 129.25 L 62.121094 124.882812 C 64.332031 121.964844 65.90625 118.535156 66.671875 114.960938 L 69.785156 100.265625 C 70.003906 99.234375 69.375 98.234375 68.351562 97.984375 C 67.835938 97.855469 67.308594 97.945312 66.859375 98.226562 C 66.410156 98.511719 66.105469 98.953125 66 99.46875 L 64.726562 105.625 C 64.480469 106.816406 63.9375 107.9375 63.152344 108.871094 L 62.386719 109.78125 C 61.964844 110.285156 61.292969 110.527344 60.644531 110.40625 C 59.992188 110.285156 59.453125 109.820312 59.238281 109.195312 L 58.625 107.40625 C 58.355469 106.632812 58.222656 105.824219 58.222656 105.003906 L 58.222656 79.734375 C 58.222656 78.53125 57.238281 77.546875 56.035156 77.546875 C 54.828125 77.546875 53.847656 78.53125 53.847656 79.734375 L 53.847656 100.574219 C 53.847656 101.210938 53.332031 101.726562 52.695312 101.726562 C 52.0625 101.726562 51.546875 101.210938 51.546875 100.574219 L 51.546875 75.382812 C 51.546875 74.175781 50.566406 73.195312 49.359375 73.195312 C 48.152344 73.195312 47.171875 74.175781 47.171875 75.382812 L 47.171875 100.574219 C 47.171875 101.210938 46.65625 101.726562 46.019531 101.726562 C 45.386719 101.726562 44.871094 101.210938 44.871094 100.574219 L 44.871094 79.738281 C 44.871094 78.53125 43.890625 77.546875 42.683594 77.546875 C 41.476562 77.546875 40.496094 78.53125 40.496094 79.738281 L 40.496094 100.574219 C 40.496094 101.210938 39.980469 101.726562 39.347656 101.726562 C 38.710938 101.726562 38.195312 101.210938 38.195312 100.574219 L 38.195312 86.871094 C 38.195312 85.664062 37.214844 84.679688 36.007812 84.679688 C 34.804688 84.679688 33.820312 85.664062 33.820312 86.871094 L 33.820312 116.265625 C 33.820312 119.101562 34.679688 121.828125 36.296875 124.15625 L 39.703125 129.046875 C 40.558594 130.277344 41.011719 131.714844 41.011719 133.210938 L 41.011719 142.9375 C 41.011719 143.574219 40.496094 144.085938 39.863281 144.085938 C 39.226562 144.085938 38.710938 143.574219 38.710938 142.9375 L 38.710938 133.210938 C 38.710938 132.1875 38.402344 131.203125 37.816406 130.363281 L 34.410156 125.46875 C 32.519531 122.753906 31.523438 119.574219 31.523438 116.265625 L 31.523438 86.871094 C 31.523438 84.394531 33.535156 82.378906 36.007812 82.378906 C 36.804688 82.378906 37.550781 82.585938 38.195312 82.949219 L 38.195312 79.738281 C 38.195312 77.261719 40.210938 75.246094 42.683594 75.246094 C 43.476562 75.246094 44.222656 75.453125 44.871094 75.816406 L 44.871094 75.382812 C 44.871094 72.90625 46.882812 70.894531 49.359375 70.894531 C 51.832031 70.894531 53.847656 72.90625 53.847656 75.382812 L 53.847656 75.816406 C 54.492188 75.453125 55.238281 75.246094 56.035156 75.246094 C 58.507812 75.246094 60.519531 77.261719 60.519531 79.734375 L 60.519531 105.003906 C 60.519531 105.570312 60.613281 106.125 60.796875 106.65625 L 61.148438 107.679688 L 61.390625 107.390625 C 61.929688 106.75 62.304688 105.976562 62.472656 105.160156 L 63.746094 99.003906 C 63.980469 97.867188 64.652344 96.902344 65.632812 96.28125 C 66.613281 95.664062 67.773438 95.472656 68.898438 95.75 C 71.132812 96.292969 72.511719 98.488281 72.035156 100.742188 L 68.921875 115.441406 C 68.078125 119.375 66.339844 123.140625 63.902344 126.339844 C 63.867188 126.382812 63.835938 126.421875 63.796875 126.457031 L 59.335938 130.882812 C 58.773438 131.441406 58.449219 132.21875 58.449219 133.015625 L 58.449219 142.9375 C 58.449219 143.574219 57.933594 144.085938 57.296875 144.085938 Z M 57.296875 144.085938 " fill-opacity="1" fill-rule="nonzero"/><path fill="#ffffff" d="M 93.777344 142.9375 L 93.777344 133.015625 C 93.777344 131.90625 93.335938 130.84375 92.546875 130.066406 L 88.085938 125.640625 C 85.734375 122.558594 84.09375 118.996094 83.277344 115.203125 L 80.164062 100.503906 C 79.820312 98.871094 80.832031 97.261719 82.449219 96.867188 C 84.144531 96.449219 85.847656 97.527344 86.203125 99.238281 L 87.472656 105.390625 C 87.683594 106.402344 88.140625 107.34375 88.804688 108.132812 L 89.566406 109.039062 C 89.910156 109.453125 90.574219 109.328125 90.746094 108.820312 L 91.363281 107.03125 C 91.589844 106.378906 91.703125 105.695312 91.703125 105.003906 L 91.703125 79.734375 C 91.703125 77.890625 93.199219 76.398438 95.039062 76.398438 C 96.882812 76.398438 98.378906 77.890625 98.378906 79.734375 L 98.378906 100.578125 L 98.378906 75.382812 C 98.378906 73.539062 99.871094 72.042969 101.714844 72.042969 C 103.558594 72.042969 105.050781 73.539062 105.050781 75.382812 L 105.050781 100.574219 L 105.050781 79.738281 C 105.050781 77.894531 106.546875 76.398438 108.390625 76.398438 C 110.234375 76.398438 111.726562 77.894531 111.726562 79.738281 L 111.726562 100.574219 L 111.726562 86.871094 C 111.726562 85.027344 113.222656 83.53125 115.066406 83.53125 C 116.90625 83.53125 118.402344 85.027344 118.402344 86.871094 L 118.402344 116.265625 C 118.402344 119.324219 117.464844 122.304688 115.71875 124.8125 L 112.3125 129.703125 C 111.597656 130.734375 111.210938 131.957031 111.210938 133.210938 L 111.210938 142.9375 Z M 93.777344 142.9375 " fill-opacity="1" fill-rule="nonzero"/><path fill="#231d93" d="M 93.777344 144.085938 C 93.140625 144.085938 92.625 143.574219 92.625 142.9375 L 92.625 133.015625 C 92.625 132.21875 92.300781 131.441406 91.738281 130.882812 L 87.277344 126.457031 C 87.242188 126.421875 87.207031 126.382812 87.171875 126.339844 C 84.734375 123.144531 83 119.375 82.152344 115.445312 L 79.039062 100.742188 C 78.5625 98.488281 79.941406 96.292969 82.175781 95.75 C 83.300781 95.472656 84.464844 95.664062 85.445312 96.28125 C 86.421875 96.902344 87.09375 97.867188 87.328125 99.003906 L 88.601562 105.15625 C 88.769531 105.976562 89.144531 106.75 89.683594 107.394531 L 89.925781 107.679688 L 90.277344 106.65625 C 90.460938 106.125 90.554688 105.570312 90.554688 105.003906 L 90.554688 79.734375 C 90.554688 77.261719 92.566406 75.246094 95.039062 75.246094 C 95.835938 75.246094 96.582031 75.453125 97.230469 75.816406 L 97.230469 75.382812 C 97.230469 72.90625 99.242188 70.894531 101.714844 70.894531 C 104.191406 70.894531 106.203125 72.90625 106.203125 75.382812 L 106.203125 75.816406 C 106.851562 75.453125 107.597656 75.246094 108.390625 75.246094 C 110.863281 75.246094 112.878906 77.261719 112.878906 79.738281 L 112.878906 82.949219 C 113.523438 82.585938 114.269531 82.378906 115.066406 82.378906 C 117.539062 82.378906 119.550781 84.394531 119.550781 86.871094 L 119.550781 116.265625 C 119.550781 119.574219 118.554688 122.753906 116.664062 125.46875 L 113.257812 130.363281 C 112.671875 131.203125 112.363281 132.1875 112.363281 133.210938 L 112.363281 142.9375 C 112.363281 143.574219 111.847656 144.085938 111.210938 144.085938 C 110.578125 144.085938 110.0625 143.574219 110.0625 142.9375 L 110.0625 133.210938 C 110.0625 131.714844 110.515625 130.277344 111.371094 129.046875 L 114.777344 124.15625 C 116.394531 121.828125 117.253906 119.101562 117.253906 116.265625 L 117.253906 86.871094 C 117.253906 85.664062 116.269531 84.679688 115.066406 84.679688 C 113.859375 84.679688 112.878906 85.664062 112.878906 86.871094 L 112.878906 100.574219 C 112.878906 101.210938 112.363281 101.726562 111.726562 101.726562 C 111.09375 101.726562 110.578125 101.210938 110.578125 100.574219 L 110.578125 79.738281 C 110.578125 78.53125 109.597656 77.546875 108.390625 77.546875 C 107.183594 77.546875 106.203125 78.53125 106.203125 79.738281 L 106.203125 100.574219 C 106.203125 101.210938 105.6875 101.726562 105.050781 101.726562 C 104.417969 101.726562 103.902344 101.210938 103.902344 100.574219 L 103.902344 75.382812 C 103.902344 74.175781 102.921875 73.195312 101.714844 73.195312 C 100.507812 73.195312 99.527344 74.175781 99.527344 75.382812 L 99.527344 100.574219 C 99.527344 101.210938 99.011719 101.726562 98.378906 101.726562 C 97.742188 101.726562 97.226562 101.210938 97.226562 100.574219 L 97.226562 79.734375 C 97.226562 78.53125 96.246094 77.546875 95.039062 77.546875 C 93.835938 77.546875 92.851562 78.53125 92.851562 79.734375 L 92.851562 105.003906 C 92.851562 105.824219 92.71875 106.632812 92.453125 107.40625 L 91.835938 109.195312 C 91.621094 109.820312 91.082031 110.285156 90.433594 110.40625 C 89.78125 110.527344 89.113281 110.289062 88.6875 109.78125 L 87.921875 108.871094 C 87.136719 107.9375 86.59375 106.816406 86.347656 105.625 L 85.074219 99.472656 C 84.96875 98.953125 84.664062 98.511719 84.214844 98.226562 C 83.765625 97.945312 83.238281 97.855469 82.722656 97.984375 C 81.699219 98.234375 81.070312 99.234375 81.289062 100.265625 L 84.402344 114.964844 C 85.171875 118.539062 86.742188 121.964844 88.953125 124.882812 L 93.355469 129.25 C 94.355469 130.238281 94.925781 131.609375 94.925781 133.015625 L 94.925781 142.9375 C 94.925781 143.574219 94.410156 144.085938 93.777344 144.085938 Z M 93.777344 144.085938 " fill-opacity="1" fill-rule="nonzero"/><path fill="#231d93" d="M 122.851562 63.027344 L 118.601562 63.027344 C 117.964844 63.027344 117.449219 62.515625 117.449219 61.878906 C 117.449219 61.242188 117.964844 60.726562 118.601562 60.726562 L 122.851562 60.726562 C 123.484375 60.726562 124 61.242188 124 61.878906 C 124 62.515625 123.484375 63.027344 122.851562 63.027344 Z M 122.851562 63.027344 " fill-opacity="1" fill-rule="nonzero"/><path fill="#231d93" d="M 112.242188 63.027344 L 107.988281 63.027344 C 107.355469 63.027344 106.839844 62.515625 106.839844 61.878906 C 106.839844 61.242188 107.355469 60.726562 107.988281 60.726562 L 112.242188 60.726562 C 112.875 60.726562 113.390625 61.242188 113.390625 61.878906 C 113.390625 62.515625 112.875 63.027344 112.242188 63.027344 Z M 112.242188 63.027344 " fill-opacity="1" fill-rule="nonzero"/><path fill="#231d93" d="M 132.707031 63.027344 L 128.457031 63.027344 C 127.824219 63.027344 127.308594 62.515625 127.308594 61.878906 C 127.308594 61.242188 127.824219 60.726562 128.457031 60.726562 L 132.707031 60.726562 C 133.34375 60.726562 133.859375 61.242188 133.859375 61.878906 C 133.859375 62.515625 133.34375 63.027344 132.707031 63.027344 Z M 132.707031 63.027344 " fill-opacity="1" fill-rule="nonzero"/><path fill="#231d93" d="M 48.605469 63.027344 L 43.601562 63.027344 C 42.96875 63.027344 42.453125 62.515625 42.453125 61.878906 C 42.453125 61.242188 42.96875 60.726562 43.601562 60.726562 L 48.605469 60.726562 C 49.242188 60.726562 49.757812 61.242188 49.757812 61.878906 C 49.757812 62.515625 49.242188 63.027344 48.605469 63.027344 Z M 48.605469 63.027344 " fill-opacity="1" fill-rule="nonzero"/><path fill="#231d93" d="M 59.9375 63.027344 L 54.933594 63.027344 C 54.296875 63.027344 53.78125 62.515625 53.78125 61.878906 C 53.78125 61.242188 54.296875 60.726562 54.933594 60.726562 L 59.9375 60.726562 C 60.574219 60.726562 61.085938 61.242188 61.085938 61.878906 C 61.085938 62.515625 60.574219 63.027344 59.9375 63.027344 Z M 59.9375 63.027344 " fill-opacity="1" fill-rule="nonzero"/><path fill="#231d93" d="M 59.9375 73.121094 L 54.933594 73.121094 C 54.296875 73.121094 53.78125 72.605469 53.78125 71.972656 C 53.78125 71.335938 54.296875 70.820312 54.933594 70.820312 L 59.9375 70.820312 C 60.574219 70.820312 61.085938 71.335938 61.085938 71.972656 C 61.085938 72.605469 60.574219 73.121094 59.9375 73.121094 Z M 59.9375 73.121094 " fill-opacity="1" fill-rule="nonzero"/><path fill="#231d93" d="M 71.269531 63.027344 L 66.265625 63.027344 C 65.628906 63.027344 65.113281 62.515625 65.113281 61.878906 C 65.113281 61.242188 65.628906 60.726562 66.265625 60.726562 L 71.269531 60.726562 C 71.902344 60.726562 72.417969 61.242188 72.417969 61.878906 C 72.417969 62.515625 71.902344 63.027344 71.269531 63.027344 Z M 71.269531 63.027344 " fill-opacity="1" fill-rule="nonzero"/><path fill="#231d93" d="M 71.269531 73.121094 L 66.265625 73.121094 C 65.628906 73.121094 65.113281 72.605469 65.113281 71.972656 C 65.113281 71.335938 65.628906 70.820312 66.265625 70.820312 L 71.269531 70.820312 C 71.902344 70.820312 72.417969 71.335938 72.417969 71.972656 C 72.417969 72.605469 71.902344 73.121094 71.269531 73.121094 Z M 71.269531 73.121094 " fill-opacity="1" fill-rule="nonzero"/><path fill="#231d93" d="M 82.597656 63.027344 L 77.59375 63.027344 C 76.960938 63.027344 76.445312 62.515625 76.445312 61.878906 C 76.445312 61.242188 76.960938 60.726562 77.59375 60.726562 L 82.597656 60.726562 C 83.234375 60.726562 83.75 61.242188 83.75 61.878906 C 83.75 62.515625 83.234375 63.027344 82.597656 63.027344 Z M 82.597656 63.027344 " fill-opacity="1" fill-rule="nonzero"/><path fill="#231d93" d="M 82.597656 73.121094 L 77.59375 73.121094 C 76.960938 73.121094 76.445312 72.605469 76.445312 71.972656 C 76.445312 71.335938 76.960938 70.820312 77.59375 70.820312 L 82.597656 70.820312 C 83.234375 70.820312 83.75 71.335938 83.75 71.972656 C 83.75 72.605469 83.234375 73.121094 82.597656 73.121094 Z M 82.597656 73.121094 " fill-opacity="1" fill-rule="nonzero"/><path fill="#231d93" d="M 93.929688 63.027344 L 88.925781 63.027344 C 88.289062 63.027344 87.773438 62.515625 87.773438 61.878906 C 87.773438 61.242188 88.289062 60.726562 88.925781 60.726562 L 93.929688 60.726562 C 94.566406 60.726562 95.078125 61.242188 95.078125 61.878906 C 95.078125 62.515625 94.566406 63.027344 93.929688 63.027344 Z M 93.929688 63.027344 " fill-opacity="1" fill-rule="nonzero"/><path fill="#231d93" d="M 91.703125 83.214844 L 67.683594 83.214844 C 67.046875 83.214844 66.53125 82.699219 66.53125 82.0625 C 66.53125 81.429688 67.046875 80.914062 67.683594 80.914062 L 91.703125 80.914062 C 92.339844 80.914062 92.851562 81.429688 92.851562 82.0625 C 92.851562 82.699219 92.339844 83.214844 91.703125 83.214844 Z M 91.703125 83.214844 " fill-opacity="1" fill-rule="nonzero"/><path fill="#ffffff" d="M 52.148438 52.074219 L 45.175781 52.074219 L 45.175781 47.816406 C 45.175781 47.136719 45.722656 46.589844 46.402344 46.589844 L 50.921875 46.589844 C 51.597656 46.589844 52.148438 47.136719 52.148438 47.816406 Z M 52.148438 52.074219 " fill-opacity="1" fill-rule="nonzero"/><path fill="#231d93" d="M 52.148438 53.226562 L 45.175781 53.226562 C 44.539062 53.226562 44.023438 52.710938 44.023438 52.074219 L 44.023438 47.816406 C 44.023438 46.503906 45.089844 45.4375 46.402344 45.4375 L 50.921875 45.4375 C 52.230469 45.4375 53.296875 46.503906 53.296875 47.816406 L 53.296875 52.074219 C 53.296875 52.710938 52.78125 53.226562 52.148438 53.226562 Z M 46.324219 50.925781 L 50.996094 50.925781 L 50.996094 47.816406 C 50.996094 47.773438 50.960938 47.738281 50.921875 47.738281 L 46.402344 47.738281 C 46.359375 47.738281 46.324219 47.773438 46.324219 47.816406 Z M 46.324219 50.925781 " fill-opacity="1" fill-rule="nonzero"/><g clip-path="url(#801cfd0a67)"><path fill="#231d93" d="M 48.660156 47.738281 C 48.027344 47.738281 47.511719 47.222656 47.511719 46.589844 L 47.511719 44.320312 C 47.511719 40.578125 50.554688 37.535156 54.292969 37.535156 L 115.09375 37.535156 C 117.566406 37.535156 119.574219 35.523438 119.574219 33.050781 C 119.574219 32.414062 120.089844 31.898438 120.726562 31.898438 C 121.359375 31.898438 121.875 32.414062 121.875 33.050781 C 121.875 36.789062 118.832031 39.835938 115.09375 39.835938 L 54.292969 39.835938 C 51.820312 39.835938 49.808594 41.847656 49.808594 44.320312 L 49.808594 46.589844 C 49.808594 47.222656 49.296875 47.738281 48.660156 47.738281 Z M 48.660156 47.738281 " fill-opacity="1" fill-rule="nonzero"/></g><path fill="#231d93" d="M 122.851562 73.121094 L 118.601562 73.121094 C 117.964844 73.121094 117.449219 72.605469 117.449219 71.972656 C 117.449219 71.335938 117.964844 70.820312 118.601562 70.820312 L 122.851562 70.820312 C 123.484375 70.820312 124 71.335938 124 71.972656 C 124 72.605469 123.484375 73.121094 122.851562 73.121094 Z M 122.851562 73.121094 " fill-opacity="1" fill-rule="nonzero"/><path fill="#231d93" d="M 132.707031 73.121094 L 128.457031 73.121094 C 127.824219 73.121094 127.308594 72.605469 127.308594 71.972656 C 127.308594 71.335938 127.824219 70.820312 128.457031 70.820312 L 132.707031 70.820312 C 133.34375 70.820312 133.859375 71.335938 133.859375 71.972656 C 133.859375 72.605469 133.34375 73.121094 132.707031 73.121094 Z M 132.707031 73.121094 " fill-opacity="1" fill-rule="nonzero"/><path fill="#231d93" d="M 132.707031 82.660156 L 128.457031 82.660156 C 127.824219 82.660156 127.308594 82.144531 127.308594 81.511719 C 127.308594 80.875 127.824219 80.359375 128.457031 80.359375 L 132.707031 80.359375 C 133.34375 80.359375 133.859375 80.875 133.859375 81.511719 C 133.859375 82.144531 133.34375 82.660156 132.707031 82.660156 Z M 132.707031 82.660156 " fill-opacity="1" fill-rule="nonzero"/><path fill="#231d93" d="M 122.851562 82.660156 L 120.726562 82.660156 C 120.089844 82.660156 119.574219 82.144531 119.574219 81.511719 C 119.574219 80.875 120.089844 80.359375 120.726562 80.359375 L 122.851562 80.359375 C 123.484375 80.359375 124 80.875 124 81.511719 C 124 82.144531 123.484375 82.660156 122.851562 82.660156 Z M 122.851562 82.660156 " fill-opacity="1" fill-rule="nonzero"/><path fill="#231d93" d="M 93.929688 73.195312 L 88.925781 73.195312 C 88.289062 73.195312 87.773438 72.679688 87.773438 72.042969 C 87.773438 71.410156 88.289062 70.894531 88.925781 70.894531 L 93.929688 70.894531 C 94.566406 70.894531 95.078125 71.410156 95.078125 72.042969 C 95.078125 72.679688 94.566406 73.195312 93.929688 73.195312 Z M 93.929688 73.195312 " fill-opacity="1" fill-rule="nonzero"/><path fill="#231d93" d="M 112.242188 73.121094 L 109.523438 73.121094 C 108.886719 73.121094 108.375 72.605469 108.375 71.972656 C 108.375 71.335938 108.886719 70.820312 109.523438 70.820312 L 112.242188 70.820312 C 112.875 70.820312 113.390625 71.335938 113.390625 71.972656 C 113.390625 72.605469 112.875 73.121094 112.242188 73.121094 Z M 112.242188 73.121094 " fill-opacity="1" fill-rule="nonzero"/><path fill="#ffffff" d="M 214.679688 186.566406 L 214.679688 157.539062 C 214.679688 155.949219 213.652344 154.660156 212.390625 154.660156 L 184.488281 154.660156 C 183.226562 154.660156 182.199219 155.949219 182.199219 157.539062 L 182.199219 209.414062 C 182.199219 211.003906 183.21875 212.296875 184.480469 212.296875 L 204.601562 212.296875 Z M 214.679688 186.566406 " fill-opacity="1" fill-rule="nonzero"/><path fill="#231d93" d="M 204.601562 213.445312 L 184.480469 213.445312 C 182.589844 213.445312 181.046875 211.636719 181.046875 209.414062 L 181.046875 157.539062 C 181.046875 155.316406 182.59375 153.507812 184.488281 153.507812 L 212.390625 153.507812 C 214.285156 153.507812 215.832031 155.316406 215.832031 157.539062 L 215.832031 186.566406 C 215.832031 187.203125 215.316406 187.71875 214.679688 187.71875 C 214.046875 187.71875 213.53125 187.203125 213.53125 186.566406 L 213.53125 157.539062 C 213.53125 156.519531 212.929688 155.808594 212.390625 155.808594 L 184.488281 155.808594 C 183.949219 155.808594 183.347656 156.519531 183.347656 157.539062 L 183.347656 209.414062 C 183.347656 210.433594 183.945312 211.144531 184.480469 211.144531 L 204.601562 211.144531 C 205.234375 211.144531 205.75 211.660156 205.75 212.296875 C 205.75 212.929688 205.234375 213.445312 204.601562 213.445312 Z M 204.601562 213.445312 " fill-opacity="1" fill-rule="nonzero"/><path fill="#9fabff" d="M 204.601562 212.296875 L 184.480469 212.296875 C 183.21875 212.296875 182.199219 211.003906 182.199219 209.414062 L 182.199219 206.15625 L 216.757812 206.15625 Z M 204.601562 212.296875 " fill-opacity="1" fill-rule="nonzero"/><path fill="#231d93" d="M 204.601562 213.445312 L 184.480469 213.445312 C 182.589844 213.445312 181.046875 211.636719 181.046875 209.414062 L 181.046875 206.15625 C 181.046875 205.523438 181.5625 205.007812 182.199219 205.007812 L 216.757812 205.007812 C 217.390625 205.007812 217.90625 205.523438 217.90625 206.15625 C 217.90625 206.792969 217.390625 207.308594 216.757812 207.308594 L 183.347656 207.308594 L 183.347656 209.414062 C 183.347656 210.433594 183.945312 211.144531 184.480469 211.144531 L 204.601562 211.144531 C 205.234375 211.144531 205.75 211.660156 205.75 212.296875 C 205.75 212.929688 205.234375 213.445312 204.601562 213.445312 Z M 204.601562 213.445312 " fill-opacity="1" fill-rule="nonzero"/><path fill="#ffffff" d="M 228.117188 219.371094 L 225.824219 213.476562 L 225.878906 192.066406 C 225.886719 190.445312 225.421875 188.863281 224.550781 187.527344 L 222.6875 184.054688 L 214.703125 172.003906 L 214.703125 186.566406 L 217.625 193.582031 L 214.941406 200.386719 L 214.992188 200.347656 L 209.738281 188.0625 C 208.996094 186.210938 207.027344 185.265625 205.207031 185.882812 C 203.308594 186.523438 202.242188 188.632812 202.792969 190.644531 L 206.964844 207.644531 L 218.570312 230.859375 Z M 228.117188 219.371094 " fill-opacity="1" fill-rule="nonzero"/><path fill="#231d93" d="M 218.570312 232.007812 C 218.148438 232.007812 217.742188 231.777344 217.542969 231.375 L 205.9375 208.15625 C 205.898438 208.082031 205.867188 208 205.847656 207.917969 L 201.679688 190.933594 C 200.976562 188.328125 202.359375 185.632812 204.839844 184.792969 C 207.214844 183.988281 209.832031 185.230469 210.800781 187.621094 L 214.929688 197.277344 L 216.382812 193.59375 L 213.644531 187.007812 C 213.585938 186.871094 213.554688 186.71875 213.554688 186.566406 L 213.554688 172 C 213.554688 171.496094 213.886719 171.046875 214.371094 170.898438 C 214.859375 170.753906 215.382812 170.941406 215.664062 171.367188 L 223.644531 183.421875 C 223.664062 183.449219 223.683594 183.480469 223.699219 183.511719 L 225.542969 186.941406 C 226.519531 188.464844 227.035156 190.234375 227.03125 192.070312 L 226.972656 213.261719 L 229.1875 218.953125 C 229.417969 219.542969 229.125 220.210938 228.53125 220.441406 C 227.941406 220.671875 227.273438 220.378906 227.042969 219.785156 L 224.75 213.890625 C 224.699219 213.757812 224.671875 213.617188 224.671875 213.472656 L 224.730469 192.0625 C 224.734375 190.660156 224.339844 189.308594 223.585938 188.15625 C 223.570312 188.128906 223.550781 188.097656 223.539062 188.070312 L 221.699219 184.644531 L 215.855469 175.820312 L 215.855469 186.335938 L 218.6875 193.140625 C 218.800781 193.417969 218.804688 193.726562 218.695312 194.003906 L 216.128906 200.503906 C 216.089844 200.792969 215.941406 201.0625 215.695312 201.253906 L 215.648438 201.292969 C 215.238281 201.609375 214.667969 201.617188 214.25 201.304688 C 213.980469 201.101562 213.816406 200.792969 213.792969 200.46875 L 208.679688 188.511719 C 208.679688 188.503906 208.675781 188.5 208.671875 188.492188 C 208.152344 187.203125 206.824219 186.550781 205.578125 186.972656 C 204.265625 187.414062 203.515625 188.925781 203.902344 190.339844 C 203.90625 190.347656 203.910156 190.359375 203.910156 190.371094 L 208.050781 207.242188 L 219.597656 230.34375 C 219.882812 230.914062 219.652344 231.601562 219.085938 231.886719 C 218.917969 231.96875 218.742188 232.007812 218.570312 232.007812 Z M 218.570312 232.007812 " fill-opacity="1" fill-rule="nonzero"/><path fill="#ffce78" d="M 166.101562 106.296875 C 164.140625 106.296875 162.554688 104.652344 162.554688 102.625 L 162.554688 85.351562 C 162.554688 83.277344 164.152344 81.597656 166.128906 81.597656 L 190.339844 81.597656 C 192.3125 81.597656 193.914062 83.277344 193.914062 85.351562 L 193.914062 102.546875 C 193.914062 104.617188 192.3125 106.296875 190.339844 106.296875 Z M 166.101562 106.296875 " fill-opacity="1" fill-rule="nonzero"/><path fill="#231d93" d="M 190.339844 107.449219 L 166.101562 107.449219 C 163.511719 107.449219 161.402344 105.285156 161.402344 102.625 L 161.402344 85.351562 C 161.402344 82.644531 163.523438 80.445312 166.128906 80.445312 L 190.339844 80.445312 C 192.945312 80.445312 195.066406 82.644531 195.066406 85.351562 L 195.066406 102.546875 C 195.0625 105.25 192.945312 107.449219 190.339844 107.449219 Z M 166.128906 82.746094 C 164.789062 82.746094 163.703125 83.914062 163.703125 85.351562 L 163.703125 102.625 C 163.703125 104.015625 164.777344 105.148438 166.101562 105.148438 L 190.339844 105.148438 C 191.675781 105.148438 192.765625 103.980469 192.765625 102.546875 L 192.765625 85.351562 C 192.765625 83.914062 191.675781 82.746094 190.339844 82.746094 Z M 166.128906 82.746094 " fill-opacity="1" fill-rule="nonzero"/><path fill="#231d93" d="M 187.195312 82.746094 C 186.558594 82.746094 186.042969 82.230469 186.042969 81.597656 L 186.042969 78.398438 C 186.042969 73.867188 182.558594 70.179688 178.273438 70.179688 L 178.195312 70.179688 C 173.910156 70.179688 170.421875 73.867188 170.421875 78.398438 L 170.421875 81.597656 C 170.421875 82.230469 169.910156 82.746094 169.273438 82.746094 C 168.636719 82.746094 168.125 82.230469 168.125 81.597656 L 168.125 78.398438 C 168.125 72.597656 172.640625 67.882812 178.195312 67.882812 L 178.273438 67.882812 C 183.828125 67.882812 188.34375 72.597656 188.34375 78.398438 L 188.34375 81.597656 C 188.34375 82.230469 187.828125 82.746094 187.195312 82.746094 Z M 187.195312 82.746094 " fill-opacity="1" fill-rule="nonzero"/><path fill="#ffffff" d="M 229.59375 138.675781 L 229.574219 150.492188 C 229.570312 151.1875 230.4375 151.511719 230.894531 150.984375 L 237.457031 143.402344 C 237.433594 143.378906 259.128906 143.378906 259.128906 143.378906 C 261.992188 143.378906 264.316406 140.941406 264.316406 137.933594 L 264.316406 122.945312 C 264.316406 119.941406 261.992188 117.5 259.128906 117.5 L 234.777344 117.5 C 231.914062 117.5 229.59375 119.941406 229.59375 122.945312 Z M 229.59375 138.675781 " fill-opacity="1" fill-rule="nonzero"/><g clip-path="url(#199c5747a9)"><path fill="#231d93" d="M 230.332031 152.398438 C 230.109375 152.398438 229.878906 152.359375 229.660156 152.277344 C 228.90625 151.996094 228.421875 151.292969 228.421875 150.492188 L 228.445312 138.671875 C 228.445312 138.039062 228.960938 137.523438 229.59375 137.523438 C 229.59375 137.523438 229.59375 137.523438 229.597656 137.523438 C 230.230469 137.527344 230.746094 138.042969 230.742188 138.675781 L 230.722656 149.425781 L 236.566406 142.671875 C 236.734375 142.46875 237.019531 142.257812 237.5 142.25 C 237.542969 142.25 237.609375 142.25 237.691406 142.25 C 237.851562 142.25 238.085938 142.246094 238.386719 142.246094 C 238.980469 142.242188 239.828125 142.242188 240.84375 142.238281 C 242.878906 142.238281 245.585938 142.234375 248.296875 142.234375 C 253.714844 142.230469 259.128906 142.230469 259.128906 142.230469 C 261.355469 142.230469 263.164062 140.304688 263.164062 137.933594 L 263.164062 122.949219 C 263.164062 120.578125 261.355469 118.652344 259.128906 118.652344 L 234.78125 118.652344 C 232.554688 118.652344 230.742188 120.578125 230.742188 122.949219 L 230.742188 132.792969 C 230.742188 133.429688 230.230469 133.945312 229.59375 133.945312 C 228.957031 133.945312 228.445312 133.429688 228.445312 132.792969 L 228.445312 122.949219 C 228.445312 119.3125 231.285156 116.351562 234.78125 116.351562 L 259.128906 116.351562 C 262.621094 116.351562 265.464844 119.308594 265.464844 122.949219 L 265.464844 137.933594 C 265.464844 141.570312 262.621094 144.53125 259.128906 144.53125 C 253.820312 144.53125 240.691406 144.535156 237.988281 144.546875 L 231.761719 151.738281 C 231.390625 152.167969 230.871094 152.398438 230.332031 152.398438 Z M 238.527344 143.828125 C 238.476562 143.949219 238.410156 144.058594 238.328125 144.15625 L 238.308594 144.179688 C 238.394531 144.082031 238.472656 143.964844 238.527344 143.828125 Z M 238.527344 143.828125 " fill-opacity="1" fill-rule="nonzero"/></g><path fill="#231d93" d="M 257.59375 128.0625 L 252.664062 128.0625 C 252.03125 128.0625 251.515625 127.546875 251.515625 126.914062 C 251.515625 126.277344 252.03125 125.761719 252.664062 125.761719 L 257.59375 125.761719 C 258.230469 125.761719 258.746094 126.277344 258.746094 126.914062 C 258.746094 127.546875 258.230469 128.0625 257.59375 128.0625 Z M 257.59375 128.0625 " fill-opacity="1" fill-rule="nonzero"/><path fill="#231d93" d="M 246.277344 128.0625 L 237.433594 128.0625 C 236.796875 128.0625 236.285156 127.546875 236.285156 126.914062 C 236.285156 126.277344 236.796875 125.761719 237.433594 125.761719 L 246.277344 125.761719 C 246.914062 125.761719 247.425781 126.277344 247.425781 126.914062 C 247.425781 127.546875 246.914062 128.0625 246.277344 128.0625 Z M 246.277344 128.0625 " fill-opacity="1" fill-rule="nonzero"/><path fill="#231d93" d="M 257.59375 135.121094 L 237.433594 135.121094 C 236.796875 135.121094 236.285156 134.605469 236.285156 133.96875 C 236.285156 133.335938 236.796875 132.820312 237.433594 132.820312 L 257.59375 132.820312 C 258.230469 132.820312 258.746094 133.335938 258.746094 133.96875 C 258.746094 134.605469 258.230469 135.121094 257.59375 135.121094 Z M 257.59375 135.121094 " fill-opacity="1" fill-rule="nonzero"/><path fill="#ffffff" d="M 167.734375 115.535156 L 167.734375 138.921875 C 167.734375 140.585938 166.386719 141.933594 164.726562 141.933594 L 136.019531 141.933594 C 134.359375 141.933594 133.011719 140.585938 133.011719 138.921875 L 133.011719 115.535156 C 133.011719 113.875 134.359375 112.527344 136.019531 112.527344 L 164.726562 112.527344 C 166.386719 112.527344 167.734375 113.875 167.734375 115.535156 Z M 167.734375 115.535156 " fill-opacity="1" fill-rule="nonzero"/><path fill="#231d93" d="M 164.726562 143.082031 L 136.019531 143.082031 C 133.726562 143.082031 131.859375 141.214844 131.859375 138.921875 L 131.859375 115.535156 C 131.859375 113.242188 133.726562 111.375 136.019531 111.375 L 164.726562 111.375 C 167.019531 111.375 168.882812 113.242188 168.882812 115.535156 L 168.882812 138.921875 C 168.882812 141.214844 167.015625 143.082031 164.726562 143.082031 Z M 136.019531 113.675781 C 134.996094 113.675781 134.160156 114.511719 134.160156 115.535156 L 134.160156 138.921875 C 134.160156 139.949219 134.996094 140.78125 136.019531 140.78125 L 164.726562 140.78125 C 165.75 140.78125 166.582031 139.949219 166.582031 138.921875 L 166.582031 115.535156 C 166.582031 114.511719 165.75 113.675781 164.726562 113.675781 Z M 136.019531 113.675781 " fill-opacity="1" fill-rule="nonzero"/><path fill="#ffffff" d="M 146.453125 121.9375 C 146.453125 123.886719 144.945312 125.464844 143.089844 125.464844 C 141.234375 125.464844 139.730469 123.886719 139.730469 121.9375 C 139.730469 119.988281 141.234375 118.40625 143.089844 118.40625 C 144.945312 118.40625 146.453125 119.988281 146.453125 121.9375 Z M 146.453125 121.9375 " fill-opacity="1" fill-rule="nonzero"/><path fill="#231d93" d="M 143.089844 126.617188 C 140.605469 126.617188 138.582031 124.515625 138.582031 121.9375 C 138.582031 119.355469 140.605469 117.257812 143.089844 117.257812 C 145.578125 117.257812 147.601562 119.355469 147.601562 121.9375 C 147.601562 124.515625 145.578125 126.617188 143.089844 126.617188 Z M 143.089844 119.558594 C 141.871094 119.558594 140.882812 120.625 140.882812 121.9375 C 140.882812 123.25 141.871094 124.316406 143.089844 124.316406 C 144.308594 124.316406 145.300781 123.25 145.300781 121.9375 C 145.300781 120.625 144.308594 119.558594 143.089844 119.558594 Z M 143.089844 119.558594 " fill-opacity="1" fill-rule="nonzero"/><path fill="#ffffff" d="M 133.4375 135.007812 L 136.0625 132.25 C 137.550781 130.6875 139.960938 130.6875 141.449219 132.25 C 142.9375 133.8125 145.351562 133.8125 146.839844 132.25 L 153.316406 125.445312 C 154.804688 123.882812 157.21875 123.882812 158.707031 125.445312 L 167.605469 134.792969 Z M 133.4375 135.007812 " fill-opacity="1" fill-rule="nonzero"/><path fill="#231d93" d="M 133.4375 136.160156 C 133.152344 136.160156 132.867188 136.054688 132.644531 135.839844 C 132.183594 135.402344 132.164062 134.675781 132.601562 134.214844 L 135.230469 131.457031 C 136.167969 130.472656 137.421875 129.929688 138.757812 129.929688 C 140.09375 129.929688 141.34375 130.472656 142.285156 131.457031 C 142.785156 131.984375 143.445312 132.273438 144.144531 132.273438 C 144.84375 132.273438 145.507812 131.984375 146.007812 131.457031 L 152.484375 124.652344 C 153.425781 123.667969 154.675781 123.125 156.011719 123.125 C 157.347656 123.125 158.601562 123.667969 159.539062 124.652344 L 168.441406 134 C 168.878906 134.460938 168.859375 135.1875 168.402344 135.625 C 167.941406 136.066406 167.210938 136.046875 166.773438 135.585938 L 157.875 126.238281 C 157.375 125.714844 156.710938 125.425781 156.011719 125.425781 C 155.3125 125.425781 154.652344 125.714844 154.152344 126.238281 L 147.671875 133.042969 C 146.734375 134.03125 145.480469 134.574219 144.144531 134.574219 C 142.808594 134.574219 141.558594 134.03125 140.617188 133.042969 C 140.117188 132.519531 139.457031 132.230469 138.757812 132.230469 C 138.054688 132.230469 137.394531 132.519531 136.894531 133.042969 L 134.269531 135.800781 C 134.042969 136.039062 133.738281 136.160156 133.4375 136.160156 Z M 133.4375 136.160156 " fill-opacity="1" fill-rule="nonzero"/><path fill="#9fabff" d="M 236.886719 104.859375 L 236.886719 91.816406 L 206.476562 91.394531 L 206.476562 104.859375 C 206.476562 106.253906 213.195312 107.382812 221.480469 107.382812 C 229.972656 107.382812 236.886719 105.535156 236.886719 104.859375 Z M 236.886719 104.859375 " fill-opacity="1" fill-rule="nonzero"/><path fill="#231d93" d="M 221.480469 108.53125 C 217.410156 108.53125 213.574219 108.265625 210.679688 107.777344 C 206.929688 107.148438 205.328125 106.273438 205.328125 104.859375 L 205.328125 91.394531 C 205.328125 91.085938 205.449219 90.789062 205.667969 90.574219 C 205.886719 90.359375 206.183594 90.238281 206.492188 90.242188 L 236.90625 90.664062 C 237.535156 90.671875 238.039062 91.183594 238.039062 91.816406 L 238.039062 104.859375 C 238.039062 105.945312 236.792969 106.371094 236.046875 106.628906 C 235.164062 106.929688 233.96875 107.234375 232.589844 107.503906 C 230.625 107.886719 226.570312 108.53125 221.480469 108.53125 Z M 207.625 104.554688 C 207.953125 104.75 209.003906 105.222656 211.90625 105.640625 C 214.566406 106.019531 217.964844 106.230469 221.480469 106.230469 C 228.734375 106.230469 234.269531 104.902344 235.738281 104.292969 L 235.738281 92.949219 L 207.625 92.558594 Z M 207.625 104.554688 " fill-opacity="1" fill-rule="nonzero"/><path fill="#9fabff" d="M 245.476562 88.664062 L 222.265625 97.238281 L 199.054688 88.664062 L 222.265625 80.089844 Z M 245.476562 88.664062 " fill-opacity="1" fill-rule="nonzero"/><path fill="#231d93" d="M 222.265625 98.386719 C 222.132812 98.386719 221.996094 98.363281 221.867188 98.316406 L 198.65625 89.742188 C 198.203125 89.574219 197.90625 89.144531 197.90625 88.664062 C 197.90625 88.183594 198.203125 87.75 198.65625 87.585938 L 221.867188 79.011719 C 222.125 78.914062 222.40625 78.914062 222.664062 79.011719 L 245.875 87.585938 C 246.328125 87.75 246.628906 88.183594 246.628906 88.664062 C 246.628906 89.144531 246.328125 89.574219 245.875 89.742188 L 222.664062 98.316406 C 222.535156 98.363281 222.402344 98.386719 222.265625 98.386719 Z M 202.375 88.664062 L 222.265625 96.011719 L 242.15625 88.664062 L 222.265625 81.316406 Z M 202.375 88.664062 " fill-opacity="1" fill-rule="nonzero"/><path fill="#ffffff" d="M 187.445312 119.664062 L 193.710938 139.617188 Z M 187.445312 119.664062 " fill-opacity="1" fill-rule="nonzero"/><path fill="#231d93" d="M 193.710938 140.765625 C 193.222656 140.765625 192.769531 140.453125 192.613281 139.960938 L 186.347656 120.007812 C 186.160156 119.402344 186.496094 118.757812 187.101562 118.566406 C 187.707031 118.375 188.351562 118.714844 188.542969 119.320312 L 194.808594 139.273438 C 194.996094 139.878906 194.660156 140.523438 194.054688 140.714844 C 193.941406 140.75 193.824219 140.765625 193.710938 140.765625 Z M 193.710938 140.765625 " fill-opacity="1" fill-rule="nonzero"/><path fill="#ffffff" d="M 211.660156 119.664062 L 205.390625 139.617188 Z M 211.660156 119.664062 " fill-opacity="1" fill-rule="nonzero"/><path fill="#231d93" d="M 205.394531 140.765625 C 205.277344 140.765625 205.164062 140.75 205.046875 140.714844 C 204.441406 140.523438 204.105469 139.878906 204.296875 139.273438 L 210.5625 119.320312 C 210.75 118.714844 211.398438 118.375 212.003906 118.566406 C 212.609375 118.757812 212.945312 119.402344 212.753906 120.007812 L 206.488281 139.960938 C 206.335938 140.453125 205.882812 140.765625 205.394531 140.765625 Z M 205.394531 140.765625 " fill-opacity="1" fill-rule="nonzero"/><path fill="#ffffff" d="M 181.675781 148.320312 L 174.804688 142.800781 Z M 181.675781 148.320312 " fill-opacity="1" fill-rule="nonzero"/><path fill="#231d93" d="M 181.675781 149.46875 C 181.421875 149.46875 181.167969 149.386719 180.957031 149.214844 L 174.082031 143.695312 C 173.589844 143.300781 173.507812 142.574219 173.90625 142.078125 C 174.304688 141.585938 175.027344 141.503906 175.523438 141.902344 L 182.394531 147.421875 C 182.890625 147.820312 182.972656 148.542969 182.574219 149.039062 C 182.347656 149.324219 182.011719 149.46875 181.675781 149.46875 Z M 181.675781 149.46875 " fill-opacity="1" fill-rule="nonzero"/><path fill="#ffffff" d="M 215.179688 148.320312 L 222.050781 142.800781 Z M 215.179688 148.320312 " fill-opacity="1" fill-rule="nonzero"/><path fill="#231d93" d="M 215.179688 149.46875 C 214.84375 149.46875 214.507812 149.324219 214.28125 149.039062 C 213.882812 148.542969 213.964844 147.820312 214.457031 147.421875 L 221.332031 141.902344 C 221.828125 141.503906 222.550781 141.585938 222.949219 142.078125 C 223.34375 142.574219 223.265625 143.300781 222.769531 143.695312 L 215.898438 149.214844 C 215.6875 149.386719 215.429688 149.46875 215.179688 149.46875 Z M 215.179688 149.46875 " fill-opacity="1" fill-rule="nonzero"/><path fill="#ffce78" d="M 208.089844 171.867188 C 208.089844 177.464844 203.769531 182 198.441406 182 C 193.109375 182 188.789062 177.464844 188.789062 171.867188 C 188.789062 166.269531 193.109375 161.730469 198.441406 161.730469 C 203.769531 161.730469 208.089844 166.269531 208.089844 171.867188 Z M 208.089844 171.867188 " fill-opacity="1" fill-rule="nonzero"/><path fill="#231d93" d="M 198.441406 183.152344 C 192.484375 183.152344 187.636719 178.089844 187.636719 171.867188 C 187.636719 165.644531 192.484375 160.578125 198.441406 160.578125 C 204.394531 160.578125 209.242188 165.644531 209.242188 171.867188 C 209.242188 178.089844 204.394531 183.152344 198.441406 183.152344 Z M 198.441406 162.882812 C 193.753906 162.882812 189.9375 166.910156 189.9375 171.867188 C 189.9375 176.820312 193.753906 180.851562 198.441406 180.851562 C 203.128906 180.851562 206.941406 176.820312 206.941406 171.867188 C 206.941406 166.910156 203.128906 162.882812 198.441406 162.882812 Z M 198.441406 162.882812 " fill-opacity="1" fill-rule="nonzero"/><path fill="#231d93" d="M 197.605469 175.511719 C 197.289062 175.511719 196.988281 175.382812 196.773438 175.15625 L 193.976562 172.21875 C 193.539062 171.757812 193.554688 171.03125 194.015625 170.589844 C 194.476562 170.152344 195.203125 170.171875 195.640625 170.632812 L 197.605469 172.695312 L 201.785156 168.304688 C 202.222656 167.84375 202.953125 167.828125 203.410156 168.265625 C 203.871094 168.703125 203.890625 169.429688 203.453125 169.890625 L 198.4375 175.15625 C 198.21875 175.382812 197.917969 175.511719 197.605469 175.511719 Z M 197.605469 175.511719 " fill-opacity="1" fill-rule="nonzero"/><path fill="#ffffff" d="M 182.375 92.121094 C 182.375 92.394531 182.347656 92.664062 182.296875 92.929688 C 182.242188 93.199219 182.164062 93.457031 182.0625 93.707031 C 181.957031 93.960938 181.828125 94.199219 181.679688 94.425781 C 181.527344 94.652344 181.355469 94.859375 181.164062 95.050781 C 180.96875 95.246094 180.761719 95.417969 180.535156 95.566406 C 180.308594 95.71875 180.070312 95.847656 179.820312 95.949219 C 179.566406 96.054688 179.308594 96.132812 179.042969 96.1875 C 178.773438 96.238281 178.507812 96.265625 178.234375 96.265625 C 177.960938 96.265625 177.691406 96.238281 177.425781 96.1875 C 177.160156 96.132812 176.898438 96.054688 176.648438 95.949219 C 176.398438 95.847656 176.160156 95.71875 175.933594 95.566406 C 175.707031 95.417969 175.496094 95.246094 175.304688 95.050781 C 175.113281 94.859375 174.941406 94.652344 174.789062 94.425781 C 174.636719 94.199219 174.511719 93.960938 174.40625 93.707031 C 174.304688 93.457031 174.222656 93.199219 174.171875 92.929688 C 174.117188 92.664062 174.089844 92.394531 174.089844 92.121094 C 174.089844 91.851562 174.117188 91.582031 174.171875 91.3125 C 174.222656 91.046875 174.304688 90.789062 174.40625 90.535156 C 174.511719 90.285156 174.636719 90.046875 174.789062 89.820312 C 174.941406 89.59375 175.113281 89.382812 175.304688 89.191406 C 175.496094 89 175.707031 88.828125 175.933594 88.675781 C 176.160156 88.527344 176.398438 88.398438 176.648438 88.292969 C 176.898438 88.191406 177.160156 88.113281 177.425781 88.058594 C 177.691406 88.003906 177.960938 87.980469 178.234375 87.980469 C 178.507812 87.980469 178.773438 88.003906 179.042969 88.058594 C 179.308594 88.113281 179.566406 88.191406 179.820312 88.292969 C 180.070312 88.398438 180.308594 88.527344 180.535156 88.675781 C 180.761719 88.828125 180.96875 89 181.164062 89.191406 C 181.355469 89.382812 181.527344 89.59375 181.679688 89.820312 C 181.828125 90.046875 181.957031 90.285156 182.0625 90.535156 C 182.164062 90.789062 182.242188 91.046875 182.296875 91.3125 C 182.347656 91.582031 182.375 91.851562 182.375 92.121094 Z M 182.375 92.121094 " fill-opacity="1" fill-rule="nonzero"/><path fill="#231d93" d="M 178.234375 97.417969 C 175.316406 97.417969 172.941406 95.042969 172.941406 92.121094 C 172.941406 89.203125 175.316406 86.828125 178.234375 86.828125 C 181.152344 86.828125 183.527344 89.203125 183.527344 92.121094 C 183.527344 95.042969 181.152344 97.417969 178.234375 97.417969 Z M 178.234375 89.128906 C 176.582031 89.128906 175.242188 90.472656 175.242188 92.121094 C 175.242188 93.773438 176.582031 95.117188 178.234375 95.117188 C 179.882812 95.117188 181.226562 93.773438 181.226562 92.121094 C 181.226562 90.472656 179.882812 89.128906 178.234375 89.128906 Z M 178.234375 89.128906 " fill-opacity="1" fill-rule="nonzero"/><path fill="#231d93" d="M 178.234375 101.792969 C 177.597656 101.792969 177.085938 101.277344 177.085938 100.644531 L 177.085938 96.265625 C 177.085938 95.628906 177.597656 95.117188 178.234375 95.117188 C 178.867188 95.117188 179.382812 95.628906 179.382812 96.265625 L 179.382812 100.644531 C 179.382812 101.277344 178.867188 101.792969 178.234375 101.792969 Z M 178.234375 101.792969 " fill-opacity="1" fill-rule="nonzero"/></svg>